<?xml version="1.0" encoding="utf-8"?>
<!-- Generator: Adobe Illustrator 18.0.0, SVG Export Plug-In . SVG Version: 6.00 Build 0)  -->
<!DOCTYPE svg PUBLIC "-//W3C//DTD SVG 1.1//EN" "http://www.w3.org/Graphics/SVG/1.1/DTD/svg11.dtd">
<svg version="1.1" id="manufacturing" xmlns="http://www.w3.org/2000/svg" xmlns:xlink="http://www.w3.org/1999/xlink" x="0px"
	 y="0px" viewBox="0 0 30 30" enable-background="new 0 0 30 30" xml:space="preserve">
<g id="manufacturing_1_" display="none">
	<g display="inline">
		<path fill="#108BCC" d="M20.1,5.9h-1.1c-0.1-0.2-0.2-0.4-0.4-0.6l0.5-0.9c0.2-0.3,0.1-0.7-0.2-0.9l-2.2-1.3
			c-0.1-0.1-0.3-0.1-0.5-0.1c-0.2,0-0.3,0.2-0.4,0.3l-0.5,0.9c-0.2,0-0.5,0-0.7,0l-0.5-0.9c-0.1-0.1-0.2-0.3-0.4-0.3
			c-0.2,0-0.3,0-0.5,0.1L11,3.5c-0.3,0.2-0.4,0.6-0.2,0.9l0.5,0.9c-0.1,0.2-0.3,0.4-0.4,0.6H9.9c-0.4,0-0.6,0.3-0.6,0.6v2.6
			c0,0.4,0.3,0.6,0.6,0.6h1.1c0.1,0.2,0.2,0.4,0.4,0.6l-0.5,0.9c-0.2,0.3-0.1,0.7,0.2,0.9l2.2,1.3c0.1,0.1,0.3,0.1,0.5,0.1
			c0.2,0,0.3-0.2,0.4-0.3l0.5-0.9c0.2,0,0.5,0,0.7,0l0.5,0.9c0.1,0.1,0.2,0.3,0.4,0.3c0.1,0,0.1,0,0.2,0c0.1,0,0.2,0,0.3-0.1
			l2.2-1.3c0.3-0.2,0.4-0.6,0.2-0.9l-0.5-0.9c0.1-0.2,0.3-0.4,0.4-0.6h1.1c0.4,0,0.6-0.3,0.6-0.6V8.5V7.2V6.6
			C20.8,6.2,20.5,5.9,20.1,5.9L20.1,5.9z M15,9.7c-1,0-1.9-0.8-1.9-1.9S14,6,15,6s1.9,0.8,1.9,1.9S16,9.7,15,9.7L15,9.7z"/>
		<path fill="#108BCC" d="M6.1,10.3V8.6h1.6V7.1H5.4C5,7.1,4.6,7.4,4.6,7.9v2.4c-0.6,0.1-1.1,0.4-1.6,0.9c-0.6,0.6-1,1.4-1,2.3
			s0.3,1.7,1,2.3c0.3,0.3,0.8,0.3,1.1,0c0.3-0.3,0.3-0.8,0-1.1c-0.7-0.7-0.7-1.8,0-2.5c0.3-0.3,0.8-0.5,1.2-0.5s0.9,0.2,1.2,0.5
			c0.7,0.7,0.7,1.8,0,2.5c-0.3,0.3-0.3,0.8,0,1.1C6.8,15.9,7,16,7.2,16s0.4-0.1,0.5-0.2c0.6-0.6,1-1.4,1-2.3s-0.3-1.7-1-2.3
			C7.3,10.7,6.7,10.4,6.1,10.3z"/>
		<path fill="#108BCC" d="M26.9,11.1c-0.4-0.4-1-0.7-1.6-0.9V7.9c0-0.4-0.3-0.8-0.8-0.8h-2.3v1.5h1.6v1.7c-0.6,0.1-1.1,0.4-1.6,0.9
			c-0.6,0.6-1,1.4-1,2.3s0.3,1.7,1,2.3c0.3,0.3,0.8,0.3,1.1,0c0.3-0.3,0.3-0.8,0-1.1c-0.7-0.7-0.7-1.8,0-2.5
			c0.3-0.3,0.8-0.5,1.2-0.5c0.5,0,0.9,0.2,1.2,0.5c0.7,0.7,0.7,1.8,0,2.5c-0.3,0.3-0.3,0.8,0,1.1c0.1,0.1,0.3,0.2,0.5,0.2
			s0.4-0.1,0.5-0.2c0.6-0.6,1-1.4,1-2.3S27.5,11.8,26.9,11.1L26.9,11.1z"/>
	</g>
	<circle display="inline" fill="#108BCC" cx="4.2" cy="25.9" r="2"/>
	<circle display="inline" fill="#108BCC" cx="15" cy="25.9" r="2"/>
	<path display="inline" fill="#108BCC" d="M17.9,23.9c0.4,0.6,0.6,1.3,0.6,2c0,0.7-0.2,1.4-0.6,2h5c-0.4-0.6-0.6-1.3-0.6-2
		c0-0.7,0.2-1.4,0.6-2H17.9z"/>
	<path display="inline" fill="#108BCC" d="M7.1,23.9c0.4,0.6,0.6,1.3,0.6,2c0,0.7-0.2,1.4-0.6,2h5c-0.4-0.6-0.6-1.3-0.6-2
		c0-0.7,0.2-1.4,0.6-2H7.1z"/>
	<circle display="inline" fill="#108BCC" cx="25.8" cy="25.9" r="2"/>
	<path display="inline" fill="#108BCC" d="M16.9,17.8h-3.8c-0.4,0-0.8,0.3-0.8,0.8v3.8h5.3v-3.8C17.6,18.2,17.3,17.8,16.9,17.8z"/>
	<path display="inline" fill="#108BCC" d="M9.3,17.8H5.6c-0.4,0-0.8,0.3-0.8,0.8v3.8h5.3v-3.8C10.1,18.2,9.8,17.8,9.3,17.8z"/>
	<path display="inline" fill="#108BCC" d="M20.7,17.8c-0.4,0-0.8,0.3-0.8,0.8v3.8h5.3v-3.8c0-0.4-0.3-0.8-0.8-0.8H20.7z"/>
</g>
<g id="kitting" display="none">
	<path display="inline" fill="#108BCC" d="M28.5,13.9l-1.4-5.8c0-0.2-0.2-0.4-0.4-0.5c-0.2-0.1-0.4-0.1-0.6,0L21.4,10H8.6L3.8,7.6
		c-0.2-0.1-0.4-0.1-0.6,0C3.1,7.7,2.9,7.9,2.9,8.1l-1.4,5.8c-0.1,0.3,0.1,0.6,0.4,0.7l4.6,2.3v10.9c0,0.4,0.3,0.7,0.7,0.7h15.8
		c0.4,0,0.7-0.3,0.7-0.7V16.9l4.6-2.3C28.4,14.5,28.5,14.2,28.5,13.9z M17.7,20.1h-5.4c-0.4,0-0.7-0.3-0.7-0.7s0.3-0.7,0.7-0.7h5.4
		c0.4,0,0.7,0.3,0.7,0.7S18,20.1,17.7,20.1z M7.9,15.8l1-4.5H21l1,4.5H7.9z"/>
	<g display="inline">
		<g>
			<g>
				<g>
					<path fill="#108BCC" d="M17.2,7.3C17.2,7.2,17.1,7.2,17.2,7.3l-1.2-0.1V4c0-0.1,0-0.2-0.1-0.2l-1.6,0c-0.1,0-0.1,0.2-0.1,0.2
						v3.3h-1.2c0,0-0.1,0-0.1,0.1c0,0,0,0.1,0,0.1l2.1,2.1c0,0,0,0,0.1,0s0.1,0,0.1,0l2.1-2.1C17.2,7.4,17.2,7.3,17.2,7.3z"/>
				</g>
			</g>
		</g>
		<g>
			<g>
				<g>
					<path fill="#108BCC" d="M21.3,5.1C21.3,5.1,21.3,5.1,21.3,5.1l-1.2-0.1V1.8c0-0.1,0-0.2-0.1-0.2l-1.6,0c-0.1,0-0.1,0.2-0.1,0.2
						v3.3H17c0,0-0.1,0-0.1,0.1c0,0,0,0.1,0,0.1l2.1,2.1c0,0,0,0,0.1,0c0,0,0.1,0,0.1,0l2.1-2.1C21.3,5.2,21.4,5.2,21.3,5.1z"/>
				</g>
			</g>
		</g>
		<g>
			<g>
				<g>
					<path fill="#108BCC" d="M13.1,5.1C13,5.1,13,5.1,13.1,5.1l-1.2-0.1V1.8c0-0.1,0-0.2-0.1-0.2l-1.6,0c-0.1,0-0.1,0.2-0.1,0.2v3.3
						H8.8c0,0-0.1,0-0.1,0.1c0,0,0,0.1,0,0.1l2.1,2.1c0,0,0,0,0.1,0c0,0,0.1,0,0.1,0L13,5.2C13.1,5.2,13.1,5.2,13.1,5.1z"/>
				</g>
			</g>
		</g>
	</g>
</g>
<g id="Dekitting" display="none">
	<path display="inline" fill="#108BCC" d="M28.5,13.9l-1.4-5.8c0-0.2-0.2-0.4-0.4-0.5c-0.2-0.1-0.4-0.1-0.6,0L21.4,10H8.6L3.8,7.6
		c-0.2-0.1-0.4-0.1-0.6,0C3.1,7.7,2.9,7.9,2.9,8.1l-1.4,5.8c-0.1,0.3,0.1,0.6,0.4,0.7l4.6,2.3v10.9c0,0.4,0.3,0.7,0.7,0.7h15.8
		c0.4,0,0.7-0.3,0.7-0.7V16.9l4.6-2.3C28.4,14.5,28.5,14.2,28.5,13.9z M17.7,20.1h-5.4c-0.4,0-0.7-0.3-0.7-0.7s0.3-0.7,0.7-0.7h5.4
		c0.4,0,0.7,0.3,0.7,0.7S18,20.1,17.7,20.1z M7.9,15.8l1-4.5H21l1,4.5H7.9z"/>
	<g display="inline">
		<g>
			<g>
				<g>
					<path fill="#108BCC" d="M12.8,3.8C12.8,3.8,12.9,3.9,12.8,3.8l1.2,0.1v3.3c0,0.1,0,0.2,0.1,0.2l1.6,0c0.1,0,0.1-0.2,0.1-0.2
						V3.9h1.2c0,0,0.1,0,0.1-0.1c0,0,0-0.1,0-0.1l-2.1-2.1c0,0,0,0-0.1,0c0,0-0.1,0-0.1,0l-2.1,2.1C12.8,3.7,12.8,3.8,12.8,3.8z"/>
				</g>
			</g>
		</g>
		<g>
			<g>
				<g>
					<path fill="#108BCC" d="M8.7,5.9C8.7,6,8.7,6,8.7,5.9L9.9,6v3.3c0,0.1,0,0.2,0.1,0.2l1.6,0c0.1,0,0.1-0.2,0.1-0.2V6H13
						c0,0,0.1,0,0.1-0.1c0,0,0-0.1,0-0.1l-2.1-2.1c0,0,0,0-0.1,0s-0.1,0-0.1,0L8.7,5.8C8.7,5.9,8.6,5.9,8.7,5.9z"/>
				</g>
			</g>
		</g>
		<g>
			<g>
				<g>
					<path fill="#108BCC" d="M16.9,5.9C17,6,17,6,16.9,5.9L18.2,6v3.3c0,0.1,0,0.2,0.1,0.2l1.6,0c0.1,0,0.1-0.2,0.1-0.2V6h1.2
						c0,0,0.1,0,0.1-0.1c0,0,0-0.1,0-0.1l-2.1-2.1c0,0,0,0-0.1,0c0,0-0.1,0-0.1,0L17,5.8C16.9,5.9,16.9,5.9,16.9,5.9z"/>
				</g>
			</g>
		</g>
	</g>
</g>
<g id="Wave_Planning." display="none">
	<path display="inline" fill="#108BCC" d="M13.7,9.9c0-0.1,0-0.2,0-0.4s0-0.2,0-0.4l0.8-0.6c0.5-0.4,0.6-1.1,0.3-1.6l-0.7-1.3
		c-0.3-0.6-1-0.8-1.6-0.5l-0.9,0.4c-0.2-0.1-0.4-0.2-0.6-0.3L11,4.1C10.9,3.5,10.4,3,9.8,3H8.3C7.7,3,7.1,3.5,7.1,4.1L7,5.2
		C6.8,5.3,6.6,5.4,6.4,5.5L5.5,5.1c-0.6-0.3-1.2,0-1.6,0.5L3.2,6.9C2.9,7.5,3,8.2,3.5,8.5l0.8,0.6c0,0.1,0,0.2,0,0.4s0,0.2,0,0.4
		l-0.8,0.6c-0.5,0.4-0.6,1.1-0.3,1.6l0.7,1.3c0.3,0.5,1,0.8,1.6,0.5l0.9-0.4c0.2,0.1,0.4,0.2,0.6,0.3l0.1,1.1
		C7.1,15.5,7.7,16,8.3,16h1.5c0.6,0,1.1-0.5,1.2-1.1l0.1-1.1c0.2-0.1,0.4-0.2,0.6-0.3l0.9,0.4c0.6,0.3,1.2,0,1.6-0.5l0.7-1.3
		c0.3-0.5,0.2-1.2-0.3-1.6L13.7,9.9z M11.5,9.5c0,1.4-1.1,2.5-2.5,2.5s-2.5-1.1-2.5-2.5S7.6,7,9,7S11.5,8.1,11.5,9.5z"/>
	<path display="inline" fill="#108BCC" d="M24,21H6c-1.6,0-3,1.3-3,3s1.3,3,3,3H24c1.6,0,3-1.3,3-3S25.6,21,24,21z M7,25
		c-0.5,0-1-0.4-1-1c0-0.5,0.4-1,1-1s1,0.4,1,1C8,24.5,7.6,25,7,25z M12,25c-0.5,0-1-0.4-1-1c0-0.5,0.4-1,1-1s1,0.4,1,1
		C13,24.5,12.6,25,12,25z M18,25c-0.5,0-1-0.4-1-1c0-0.5,0.4-1,1-1s1,0.4,1,1C19,24.5,18.5,25,18,25z M23,25c-0.5,0-1-0.4-1-1
		c0-0.5,0.4-1,1-1c0.5,0,1,0.4,1,1C24,24.5,23.5,25,23,25z"/>
	<path display="inline" fill="#108BCC" d="M19.5,22.5h-5c-0.6,0-1-0.4-1-1v-5c0-0.6,0.4-1,1-1h5c0.6,0,1,0.4,1,1v5
		C20.5,22,20,22.5,19.5,22.5z M15.5,20.5h3v-3h-3V20.5z"/>
	<path display="inline" fill="#108BCC" d="M22.5,17.5h-5c-0.6,0-1-0.4-1-1v-5c0-0.6,0.4-1,1-1h5c0.6,0,1,0.4,1,1v5
		C23.5,17,23,17.5,22.5,17.5z M18.5,15.5h3v-3h-3V15.5z"/>
	<path display="inline" fill="#108BCC" d="M24.5,22.5h-5c-0.6,0-1-0.4-1-1v-5c0-0.6,0.4-1,1-1h5c0.6,0,1,0.4,1,1v5
		C25.5,22,25,22.5,24.5,22.5z M20.5,20.5h3v-3h-3V20.5z"/>
</g>
<g id="Work_Order_Issue" display="none">
	<polygon display="inline" fill="#108BCC" points="12.4,14.2 21.1,9.2 17,6.9 8.3,11.9 	"/>
	<polygon display="inline" fill="#108BCC" points="12,14.8 3.3,9.8 3.3,19.9 12,24.9 	"/>
	<rect x="19.8" y="20" display="inline" fill="#108BCC" width="1" height="1"/>
	<path display="inline" fill="#108BCC" d="M12.7,14.8v10l4.8-2.8v-7.2c0-0.8,0.7-1.5,1.5-1.5h1.2c0.1-0.5,0.6-0.9,1.2-0.9h0V9.8
		L12.7,14.8z"/>
	<path display="inline" fill="#108BCC" d="M21.4,13.2h2c0.3,0,0.5,0.2,0.5,0.5v0c0,0.3-0.2,0.5-0.5,0.5h-2c-0.3,0-0.5-0.2-0.5-0.5v0
		C20.9,13.4,21.1,13.2,21.4,13.2z"/>
	<polygon display="inline" fill="#108BCC" points="16.3,6.5 12.4,4.2 3.7,9.2 7.6,11.5 	"/>
	<path display="inline" fill="#108BCC" d="M25.9,14.1h-1.3c-0.2,0.5-0.6,0.9-1.2,0.9h-2c-0.5,0-1-0.3-1.2-0.9H19
		c-0.4,0-0.8,0.4-0.8,0.8c0,0,0,0,0,0V25c0,0.4,0.3,0.8,0.8,0.8c0,0,0,0,0,0h6.9c0.4,0,0.8-0.3,0.8-0.8c0,0,0,0,0,0V14.9
		C26.7,14.4,26.3,14.1,25.9,14.1z M19.1,16.4c0-0.2,0.2-0.4,0.3-0.4c0,0,0,0,0,0h1.7c0.2,0,0.4,0.2,0.4,0.4v0.2
		c0,0.2-0.2,0.4-0.4,0.3c-0.2,0-0.3-0.1-0.3-0.2h-1v1h0c0.2,0,0.4,0.2,0.4,0.4c0,0.2-0.2,0.4-0.4,0.4h-0.4c-0.2,0-0.3-0.2-0.3-0.3
		c0,0,0,0,0,0V16.4z M19.1,19.6c0-0.2,0.2-0.4,0.4-0.4h1.7c0.2,0,0.4,0.2,0.4,0.4v1.7c0,0.2-0.2,0.4-0.4,0.4h-1.7
		c-0.2,0-0.4-0.2-0.4-0.4V19.6z M19.8,24.8h-0.4c-0.2,0-0.3-0.1-0.3-0.3c0,0,0,0,0,0v-1.7c0-0.2,0.2-0.4,0.3-0.4h1.7
		c0.2,0,0.4,0.2,0.4,0.4v0.3c0,0.2-0.2,0.3-0.4,0.3c-0.2,0-0.3-0.2-0.3-0.3h-0.9v1h0c0.2,0,0.4,0.2,0.4,0.4S20,24.8,19.8,24.8
		L19.8,24.8z M22.4,23.5l-1.3,1.3c-0.1,0.1-0.4,0.1-0.5,0c0,0,0,0,0,0L20,24.2c-0.1-0.1-0.1-0.4,0-0.5s0.4-0.1,0.5,0l0.3,0.3l1-1
		c0.1-0.1,0.4-0.1,0.5,0S22.5,23.3,22.4,23.5L22.4,23.5z M22.4,17l-1.3,1.3c-0.1,0.1-0.4,0.1-0.5,0c0,0,0,0,0,0L20,17.7
		c-0.1-0.1-0.1-0.4,0-0.5s0.4-0.1,0.5,0l0.3,0.3l1-1c0.1-0.1,0.4-0.1,0.5,0C22.5,16.7,22.5,16.9,22.4,17L22.4,17z M25.5,24h-2.2
		c-0.2,0-0.4-0.2-0.4-0.4c0-0.2,0.2-0.4,0.4-0.4h2.2c0.2,0,0.4,0.2,0.4,0.4C25.8,23.9,25.7,24,25.5,24z M25.5,20.8h-2.2
		c-0.2,0-0.4-0.2-0.4-0.4s0.2-0.4,0.4-0.4h2.2c0.2,0,0.4,0.2,0.4,0.4S25.7,20.8,25.5,20.8z M25.5,17.6h-2.2c-0.2,0-0.4-0.2-0.4-0.4
		s0.2-0.4,0.4-0.4h2.2c0.2,0,0.4,0.2,0.4,0.4S25.7,17.6,25.5,17.6z"/>
</g>
<g id="_x33_PL" display="none">
	<path display="inline" fill="#108BCC" d="M2.9,10.1c0.7-0.7,1.7-1,2.9-1c0.8,0,1.5,0.1,2.1,0.4c0.6,0.3,1,0.7,1.3,1.1
		c0.3,0.5,0.4,1,0.4,1.6c0,0.7-0.2,1.3-0.5,1.7c-0.3,0.4-0.7,0.7-1.2,0.8v0.1c1.2,0.5,1.9,1.3,1.9,2.6c0,0.7-0.2,1.3-0.5,1.8
		c-0.3,0.5-0.8,0.9-1.3,1.2c-0.6,0.3-1.3,0.4-2.1,0.4c-1.4,0-2.4-0.3-3.2-1c-0.8-0.6-1.2-1.7-1.2-3H5c0,0.4,0,0.7,0.2,0.9
		C5.3,17.9,5.5,18,5.9,18C6,18,6.2,18,6.3,17.8c0.1-0.1,0.2-0.3,0.2-0.6c0-0.3-0.1-0.5-0.3-0.7c-0.2-0.2-0.5-0.2-1-0.2H4.7v-2.8h0.6
		c0.7,0,1.1-0.2,1.1-0.8c0-0.3-0.1-0.5-0.2-0.6C6,12,5.9,12,5.7,12c-0.4,0-0.6,0.3-0.6,1H1.8C1.8,11.7,2.2,10.8,2.9,10.1z"/>
	<path display="inline" fill="#108BCC" d="M20,15.4c-0.3,0.6-0.8,1-1.4,1.3c-0.6,0.3-1.4,0.5-2.3,0.5h-1.4v3.5h-3.5v-11h4.8
		c1.4,0,2.4,0.3,3.1,1c0.7,0.7,1.1,1.6,1.1,2.8C20.5,14.2,20.3,14.8,20,15.4z M17,13.5c0-0.7-0.4-1-1.1-1h-1v2h1
		C16.6,14.5,17,14.2,17,13.5z"/>
	<path display="inline" fill="#108BCC" d="M25,18.2h3.3v2.6h-6.8v-11H25V18.2z"/>
</g>
<g id="Activity_Master">
	<path fill="#108BCC" d="M21.6,28.2H8.4c-3.7,0-6.6-3-6.6-6.6c0-3,2.5-5.5,5.5-5.5c0.6,0,1.1,0.5,1.1,1.1c0,0.6-0.5,1.1-1.1,1.1
		c-1.8,0-3.3,1.5-3.3,3.3c0,2.4,2,4.4,4.4,4.4h13.3c2.4,0,4.4-2,4.4-4.4c0-1.8-1.5-3.3-3.3-3.3c-0.6,0-1.1-0.5-1.1-1.1
		c0-0.6,0.5-1.1,1.1-1.1c3,0,5.5,2.5,5.5,5.5C28.3,25.3,25.3,28.2,21.6,28.2z"/>
	<path fill="#108BCC" d="M16.7,10.6C16.6,10.6,16.6,10.6,16.7,10.6c-0.4,0-0.8-0.2-1-0.6l-2.3-4.7l-1.2,2.4c-0.2,0.4-0.6,0.6-1,0.6
		H8.4c-0.6,0-1.1-0.5-1.1-1.1s0.5-1.1,1.1-1.1h2.1l1.9-3.8c0.4-0.7,1.6-0.7,2,0l2.4,4.8L17.9,5c0.2-0.3,0.6-0.6,1-0.6h2.8
		c0.6,0,1.1,0.5,1.1,1.1s-0.5,1.1-1.1,1.1h-2.1L17.6,10C17.4,10.3,17.1,10.6,16.7,10.6z"/>
	<path fill="#108BCC" d="M19.4,12.8h-8.8c-2.4,0-4.4,2-4.4,4.4s2,4.4,4.4,4.4h8.8c2.4,0,4.4-2,4.4-4.4S21.9,12.8,19.4,12.8z
		 M11.1,18.8c-0.9,0-1.7-0.7-1.7-1.7s0.7-1.7,1.7-1.7s1.7,0.7,1.7,1.7S12,18.8,11.1,18.8z M18.9,18.8c-0.9,0-1.7-0.7-1.7-1.7
		s0.7-1.7,1.7-1.7s1.7,0.7,1.7,1.7S19.8,18.8,18.9,18.8z"/>
</g>
<g id="Activity_Group" display="none">
	<path display="inline" fill="#108BCC" d="M25.6,27.1c1,0,1.8-0.7,1.8-1.7c0.1-1-0.6-1.8-1.6-2c-1-0.1-1.9,0.5-2.1,1.4h-6
		c-0.2-1.2-1.1-2.2-2.3-2.3v-2.7h-0.8v2.7c-1.2,0.2-2.2,1.1-2.3,2.3h-6c-0.2-0.9-1.1-1.5-2-1.4c-0.9,0.1-1.6,0.9-1.6,1.8
		c0,0.9,0.7,1.7,1.6,1.8c0.9,0.1,1.8-0.5,2-1.4h6c0.2,1.4,1.4,2.4,2.7,2.4h0c1.4,0,2.5-1,2.7-2.4h6C24,26.5,24.7,27.1,25.6,27.1z"/>
	<path display="inline" fill="#108BCC" d="M10.3,8.7v9c0,0,0,0.1,0,0.1c0,0,0,0,0,0c0,0,0,0.1,0,0.1c0,0,0,0,0,0c0,0,0,0.1,0,0.1
		c0,0,0,0,0,0.1c0,0,0,0,0,0.1c0,0,0,0,0,0.1c0,0,0,0,0,0.1c0,0,0,0,0,0.1c0,0,0,0,0,0.1c0,0,0,0,0,0.1c0,0,0,0,0,0.1c0,0,0,0,0,0.1
		c0,0,0,0,0,0.1c0,0,0,0,0,0.1c0,0,0,0,0,0.1c0,0,0,0,0,0c0,0,0,0,0,0.1c0,0,0,0,0,0c0,0,0,0,0,0.1c0,0,0,0,0,0c0,0,0,0,0,0.1
		c0,0,0,0,0,0c0,0,0,0,0,0.1c0,0,0,0,0,0c0,0,0,0,0,0.1c0,0,0,0,0,0c0,0,0,0.1-0.1,0.1c0,0,0,0,0,0l0,0h12.8c1,0,1.7-0.8,1.7-1.7v-9
		c0-1-0.8-1.7-1.7-1.7H12.1C11.1,7,10.3,7.7,10.3,8.7z"/>
	<path display="inline" fill="#108BCC" d="M19.8,4.4h-4c-0.3,0-0.5-0.1-0.7-0.3l-1.5-1.6c-0.3-0.4-0.8-0.6-1.3-0.6H7.5
		c-1,0-1.7,0.8-1.7,1.7v14.1c0,1,0.8,1.7,1.7,1.7h0.2c1,0,1.7-0.8,1.7-1.7v-9c0-1.4,1.1-2.6,2.6-2.6h9.5v0
		C21.5,5.2,20.8,4.4,19.8,4.4z"/>
</g>
<g id="Contracts" display="none">
	<path display="inline" fill="#108BCC" d="M5.8,26.5h11.5v-2.4c-0.9-1-1.5-2.3-1.5-3.8c0-3,2.4-5.4,5.4-5.4c0.3,0,0.5,0,0.8,0.1V2.7
		c0-0.4-0.3-0.8-0.8-0.8H5.8C5.4,1.9,5,2.2,5,2.7v23.1C5,26.2,5.4,26.5,5.8,26.5z M10.4,3.5h6.1c0.4,0,0.8,0.3,0.8,0.8S17,5,16.5,5
		h-6.1C10,5,9.6,4.7,9.6,4.2S10,3.5,10.4,3.5z M8.9,6.5h9.2c0.4,0,0.8,0.3,0.8,0.8s-0.3,0.8-0.8,0.8H8.9c-0.4,0-0.8-0.3-0.8-0.8
		S8.4,6.5,8.9,6.5z M8.9,9.6h9.2c0.4,0,0.8,0.3,0.8,0.8s-0.3,0.8-0.8,0.8H8.9c-0.4,0-0.8-0.3-0.8-0.8S8.4,9.6,8.9,9.6z M8.9,12.7
		h9.2c0.4,0,0.8,0.3,0.8,0.8s-0.3,0.8-0.8,0.8H8.9c-0.4,0-0.8-0.3-0.8-0.8S8.4,12.7,8.9,12.7z M8.9,20.4h0.3l0.6-1.1
		c0.3-0.5,1.1-0.5,1.4,0l0.8,1.7l0.1-0.2c0.1-0.3,0.4-0.4,0.7-0.4h0.8c0.4,0,0.8,0.3,0.8,0.8s-0.3,0.8-0.8,0.8h-0.3L12.6,23
		c-0.1,0.3-0.4,0.4-0.7,0.4c-0.3,0-0.6-0.2-0.7-0.4l-0.8-1.7l-0.1,0.2c-0.1,0.3-0.4,0.4-0.7,0.4H8.9c-0.4,0-0.8-0.3-0.8-0.8
		S8.4,20.4,8.9,20.4z"/>
	<path display="inline" fill="#108BCC" d="M23.1,28c0.2-0.1,0.4-0.4,0.4-0.7v-2.1c-0.7,0.3-1.5,0.5-2.3,0.5c-0.8,0-1.6-0.2-2.3-0.5
		v2.1c0,0.3,0.1,0.5,0.4,0.7c0.2,0.1,0.5,0.2,0.7,0l1.2-0.6l1.2,0.6C22.6,28.2,22.9,28.1,23.1,28z"/>
	<path display="inline" fill="#108BCC" d="M25,20.4c0-2.1-1.7-3.8-3.8-3.8s-3.8,1.7-3.8,3.8s1.7,3.8,3.8,3.8S25,22.5,25,20.4z
		 M21.1,21.1c-0.4,0-0.8-0.3-0.8-0.8s0.3-0.8,0.8-0.8c0.4,0,0.8,0.3,0.8,0.8S21.6,21.1,21.1,21.1z"/>
</g>
<g id="Billing_Txn_History" display="none">
	<path display="inline" fill="#108BCC" d="M24.8,6.9c0,0-0.1,0-0.1,0c-0.1,0-0.1,0-0.1,0h-1v-3c0-0.6-0.5-1-1-1H7.4
		c-1.5,0-2.7,1.1-3,2.5c0,0.1-0.1,0.2-0.1,0.3v18.7c0,1.5,1.2,2.8,2.8,2.8h17.7c0.4,0,0.8-0.3,0.8-0.8V7.7
		C25.6,7.3,25.3,6.9,24.8,6.9z M15,23.6c-3.6,0-6.6-2.9-6.6-6.6c0-3.6,2.9-6.6,6.6-6.6s6.6,2.9,6.6,6.6C21.6,20.6,18.6,23.6,15,23.6
		z M21.6,6.9H7.4c-0.6,0-1-0.5-1-1s0.5-1,1-1h14.1V6.9z"/>
	<path display="inline" fill="#108BCC" d="M16.5,19.5c-0.3,0-0.5-0.1-0.7-0.3l-1.5-1.5C14.1,17.5,14,17.3,14,17v-3c0-0.6,0.5-1,1-1
		s1,0.5,1,1v2.6l1.2,1.2c0.4,0.4,0.4,1,0,1.4C17,19.4,16.8,19.5,16.5,19.5z"/>
</g>
<g id="Billing_Execution_History" display="none">
	<g display="inline">
		<g>
			<path fill="#108BCC" d="M20.7,6.8h-0.7v0.6c0,1.3-1,2.3-2.3,2.3h-10c-1.3,0-2.3-1-2.3-2.3V6.8H4.8c-0.4,0-0.8,0.3-0.8,0.8v19.7
				c0,0.4,0.3,0.8,0.8,0.8h10.7c-1.8-1.4-2.9-3.5-2.9-5.9c0-4.1,3.3-7.4,7.4-7.4c0.5,0,1,0.1,1.5,0.1V7.5
				C21.5,7.1,21.2,6.8,20.7,6.8z M7.2,12C7.6,11.5,8,11.1,8,11.1c0.3-0.3,0.8-0.3,1,0c0.4,0.4,1.8,1.8,1.8,2.9c0,1.3-1,2.3-2.3,2.3
				s-2.3-1-2.3-2.3C6.2,13.4,6.5,12.8,7.2,12L7.2,12z M10.2,25.4H6.9c-0.4,0-0.8-0.3-0.8-0.8c0-0.4,0.3-0.8,0.8-0.8h3.3
				c0.4,0,0.8,0.3,0.8,0.8C11,25.1,10.6,25.4,10.2,25.4z M10.2,22.4H6.9c-0.4,0-0.8-0.3-0.8-0.8s0.3-0.8,0.8-0.8h3.3
				c0.4,0,0.8,0.3,0.8,0.8S10.6,22.4,10.2,22.4z M10.2,19.3H6.9c-0.4,0-0.8-0.3-0.8-0.8s0.3-0.8,0.8-0.8h3.3c0.4,0,0.8,0.3,0.8,0.8
				S10.6,19.3,10.2,19.3z M19.1,13h-4.3c-0.4,0-0.8-0.3-0.8-0.8c0-0.4,0.3-0.8,0.8-0.8h4.3c0.4,0,0.8,0.3,0.8,0.8
				C19.9,12.6,19.5,13,19.1,13z"/>
			<path fill="#108BCC" d="M8.5,14.7c0.4,0,0.8-0.4,0.8-0.8c0-0.2-0.4-0.7-0.8-1.2c-0.4,0.5-0.8,1-0.8,1.2
				C7.7,14.4,8.1,14.7,8.5,14.7z"/>
		</g>
		<path fill="#108BCC" d="M15,5c0.1-0.3,0.1-0.6,0.1-0.9C15,2.9,14,2,12.9,2c-1.3,0-2.4,1-2.4,2.3c0,0.2,0,0.5,0.1,0.7H7.8
			C7.4,5,7,5.3,7,5.7v1.7c0,0.4,0.3,0.8,0.8,0.8h10c0.4,0,0.8-0.3,0.8-0.8V5.7c0-0.4-0.3-0.8-0.8-0.8L15,5z"/>
	</g>
	<path display="inline" fill="#108BCC" d="M20,16.2c-3.3,0-5.9,2.6-5.9,5.9S16.8,28,20,28c3.3,0,5.9-2.6,5.9-5.9
		C25.9,18.8,23.3,16.2,20,16.2z M22,21.1L20.1,24c0,0,0,0,0,0c-0.1,0.1-0.1,0.1-0.2,0.2c-0.3,0.2-0.8,0.2-1.1-0.2l-1.2-1.7
		c-0.2-0.3-0.2-0.8,0.2-1.1c0.3-0.2,0.8-0.2,1.1,0.2l0.6,0.8l1.3-2c0.2-0.4,0.7-0.5,1.1-0.2C22.1,20.3,22.2,20.7,22,21.1L22,21.1z"
		/>
</g>
<g id="RMA" display="none">
	<path display="inline" fill="#108BCC" d="M13.3,6.3l1.6,0.8V2.9H11v4.2l1.6-0.8C12.8,6.2,13,6.2,13.3,6.3z"/>
	<path display="inline" fill="#108BCC" d="M23,11.5V3.6c0-0.4-0.3-0.7-0.7-0.7h-6v5.4c0,0.5-0.5,0.9-1.1,0.6l-2.3-1.2l-2.4,1.2
		c-0.5,0.2-1-0.1-1-0.6l0-5.4h-6c-0.4,0-0.7,0.3-0.7,0.7v18.7c0,0.4,0.3,0.7,0.7,0.7h7.9c-0.9-2.2-0.9-4.6,0-6.7
		C13.3,11.8,18.5,9.6,23,11.5z"/>
	<path display="inline" fill="#108BCC" d="M24.9,14.4c-1.3-1.3-3.2-2.2-5.3-2.2s-3.9,0.8-5.3,2.2s-2.2,3.2-2.2,5.3s0.8,3.9,2.2,5.3
		s3.2,2.2,5.3,2.2s3.9-0.8,5.3-2.2s2.2-3.2,2.2-5.3S26.3,15.8,24.9,14.4z M22.7,22c-0.5,0.5-1.2,0.8-1.9,0.8h-3.3
		c-0.4,0-0.7-0.3-0.7-0.7s0.3-0.7,0.7-0.7h3.3c0.7,0,1.3-0.6,1.3-1.3c0-0.4-0.1-0.7-0.4-1c-0.2-0.2-0.6-0.4-0.9-0.4h-2l0.4,0.4
		c0.3,0.3,0.3,0.7,0,1c-0.3,0.3-0.7,0.3-1,0l-1.6-1.6c-0.3-0.3-0.3-0.7,0-1l1.6-1.6c0.3-0.3,0.7-0.3,1,0c0.3,0.3,0.3,0.7,0,1
		l-0.4,0.4h2c1.5,0,2.7,1.2,2.7,2.7C23.5,20.8,23.2,21.5,22.7,22z"/>
</g>
<g id="Additional_Field_Setup" display="none">
	<path id="XMLID_3057_" display="inline" fill="#108BCC" d="M2.1,8.2v13.7h16.7V8.2H2.1z M12.7,14.2h-1.5v-1.5H9.7v4.6h1.5v1.5H6.6
		v-1.5h1.5v-4.6H6.6v1.5H5.1v-3h7.6V14.2z"/>
	<path id="XMLID_3056_" display="inline" fill="#108BCC" d="M20.3,8.2h7.6v13.7h-7.6V8.2z"/>
	<path id="XMLID_3055_" display="inline" fill="#108BCC" d="M20.3,5.9h2.3V4.4h-6.1v1.5h2.3v2.3h1.5V5.9z"/>
	<path id="XMLID_3054_" display="inline" fill="#108BCC" d="M18.8,21.8v2.3h-2.3v1.5h6.1v-1.5h-2.3v-2.3H18.8z"/>
</g>
<g id="Material_Status" display="none">
	<path display="inline" fill="#108BCC" d="M19.4,26h-2.2v-2.2h-4.4V26h-2.2c-0.6,0-1.1,0.5-1.1,1.1c0,0.6,0.5,1.1,1.1,1.1h8.8
		c0.6,0,1.1-0.5,1.1-1.1C20.5,26.5,20,26,19.4,26z"/>
	<path display="inline" fill="#108BCC" d="M26.2,6.2h-2.5v2.2H26v13.2H4V8.4h2.2V6.2H3.8c-1.1,0-1.9,0.9-1.9,1.9v13.7
		c0,1.1,0.9,1.9,1.9,1.9h22.5c1.1,0,1.9-0.9,1.9-1.9V8.1C28.2,7.1,27.3,6.2,26.2,6.2z"/>
	<path display="inline" fill="#108BCC" d="M12.7,2.9l6,3.1l2.4-1.2l-5.9-2.9c-0.1-0.1-0.3-0.1-0.4,0L12.7,2.9z"/>
	<path display="inline" fill="#108BCC" d="M8.9,4.8l6.1,3l2.3-1.1l0.3-0.2l-6-3.1l-0.3,0.2L8.9,4.8z"/>
	<path display="inline" fill="#108BCC" d="M15.5,8.7l0,6.3l5.8-3c0.2-0.1,0.3-0.3,0.3-0.4V5.7l-2.5,1.2V9c0,0.3-0.2,0.5-0.5,0.5
		c-0.3,0-0.5-0.2-0.5-0.5V7.4l-0.3,0.2L15.5,8.7z"/>
	<path display="inline" fill="#108BCC" d="M10.9,6.9L10.9,6.9l3.6,1.8l0,0l0,6.3l-5.8-3c-0.2-0.1-0.3-0.3-0.3-0.4V5.7L10.9,6.9z"/>
</g>
<g id="Material_Status_Setup" display="none">
	<path display="inline" fill="#108BCC" d="M19.4,26.5h-2.2v-2.2h-4.4v2.2h-2.2c-0.6,0-1.1,0.5-1.1,1.1c0,0.6,0.5,1.1,1.1,1.1h8.8
		c0.6,0,1.1-0.5,1.1-1.1C20.5,27,20,26.5,19.4,26.5z"/>
	<path display="inline" fill="#108BCC" d="M26.2,6.8h-2.5v2.2H26v13.2H4V8.9h2.2V6.8H3.8c-1.1,0-1.9,0.9-1.9,1.9v13.7
		c0,1.1,0.9,1.9,1.9,1.9h22.5c1.1,0,1.9-0.9,1.9-1.9V8.7C28.2,7.6,27.3,6.8,26.2,6.8z"/>
	<path display="inline" fill="#108BCC" d="M8.3,10.6l1.5,0.2l-1,1.2c-0.2,0.3-0.2,0.7,0.1,1l1.7,1.7c0.3,0.3,0.7,0.3,1,0.1l1.2-1
		l0.2,1.5c0,0.4,0.4,0.6,0.7,0.6h2.5c0.4,0,0.7-0.3,0.7-0.6l0.2-1.5l1.2,1c0.3,0.2,0.7,0.2,1-0.1l1.7-1.7c0.3-0.3,0.3-0.7,0.1-1
		l-1-1.2l1.5-0.2c0.4,0,0.6-0.4,0.6-0.7V7.4c0-0.4-0.3-0.7-0.6-0.7l-1.5-0.2l1-1.2c0.2-0.3,0.2-0.7-0.1-1l-1.7-1.7
		c-0.3-0.3-0.7-0.3-1-0.1l-1.2,1L17,2c0-0.4-0.4-0.6-0.7-0.6h-2.5c-0.4,0-0.7,0.3-0.7,0.6l-0.2,1.5l-1.2-1c-0.3-0.2-0.7-0.2-1,0.1
		L8.9,4.3C8.7,4.6,8.7,5,8.9,5.3l1,1.2L8.3,6.7C8,6.7,7.7,7,7.7,7.4v2.5C7.7,10.2,8,10.6,8.3,10.6L8.3,10.6z M14.9,6
		C14.9,6,15,5.9,14.9,6c1.6,0,2.8,1.2,2.8,2.7s-1.2,2.7-2.7,2.7c0,0-0.1,0-0.1,0c-1.4,0-2.6-1.2-2.6-2.7S13.5,6,14.9,6z"/>
</g>
</svg>
