<?xml version="1.0" encoding="utf-8"?>
<!-- Generator: Adobe Illustrator 18.0.0, SVG Export Plug-In . SVG Version: 6.00 Build 0)  -->
<!DOCTYPE svg PUBLIC "-//W3C//DTD SVG 1.1//EN" "http://www.w3.org/Graphics/SVG/1.1/DTD/svg11.dtd">
<svg version="1.1" id="Layer_1" xmlns="http://www.w3.org/2000/svg" xmlns:xlink="http://www.w3.org/1999/xlink" x="0px" y="0px"
	 viewBox="0 0 120 120" enable-background="new 0 0 120 120" xml:space="preserve">
<g>
	<g transform="translate(1 1)">
		<g>
			<path fill="#138CCD" d="M112.7,51L62.6,5.5L62.1,5c-0.3-0.3-0.7-0.5-1.1-0.7c0,0,0,0-0.1,0c-1.2-0.6-2.7-0.6-3.9,0c0,0,0,0-0.1,0
				c-0.4,0.2-0.7,0.4-1.1,0.7l-0.5,0.4L5.3,51c-1.9,1.7-2,4.6-0.3,6.5c1.7,1.9,4.6,2,6.5,0.3l1.5-1.4v53.1c0,2.5,2.1,4.6,4.6,4.6h23
				h36.8h23c2.5,0,4.6-2.1,4.6-4.6V56.4l1.5,1.4c1.9,1.7,4.8,1.6,6.5-0.3C114.7,55.6,114.5,52.7,112.7,51z M40.6,105H22.2V48.1
				L59,14.6l36.8,33.4V105H77.4"/>
		</g>
	</g>
	<g>
		<g>
			<g>
				<g>
					<path fill="#138CCD" d="M60,37c-5.1,0-9.3,4.2-9.3,9.3c0,3.5,1.9,6.5,4.8,8.1c1.3,0.8,2.9,1.2,4.5,1.2s3.2-0.4,4.5-1.2
						c2.8-1.6,4.8-4.6,4.8-8.1C69.3,41.2,65.1,37,60,37z"/>
				</g>
			</g>
			<g>
				<g>
					<path fill="#138CCD" d="M43.7,45.7c-3.8,0-7,3.1-7,7s3.1,7,7,7c1,0,1.9-0.2,2.7-0.6c1.5-0.6,2.7-1.7,3.4-3.1
						c0.5-1,0.8-2.1,0.8-3.3C50.6,48.8,47.5,45.7,43.7,45.7z"/>
				</g>
			</g>
			<g>
				<g>
					<path fill="#138CCD" d="M76.3,45.7c-3.8,0-7,3.1-7,7c0,1.2,0.3,2.3,0.8,3.3c0.7,1.4,1.9,2.5,3.4,3.1c0.8,0.4,1.8,0.6,2.7,0.6
						c3.8,0,7-3.1,7-7S80.2,45.7,76.3,45.7z"/>
				</g>
			</g>
			<path fill="#138CCD" d="M64.7,57.5h-9.5c-4.3,0-7.7,3.5-7.7,7.7v10.5h24.9V65.3C72.5,61,69,57.5,64.7,57.5z"/>
			<path fill="#138CCD" d="M75.6,75.8h11.2v-6.5c0-4.3-3.5-7.7-7.7-7.7h-4.1c0.4,1.2,0.7,2.4,0.7,3.7V75.8z"/>
			<path fill="#138CCD" d="M44.4,75.8V65.3c0-1.3,0.2-2.5,0.7-3.7H41c-4.3,0-7.7,3.5-7.7,7.7v6.5H44.4z"/>
		</g>
		<path fill="#138CCD" d="M66.4,79C66.4,79.1,66.4,79.1,66.4,79c0,3.7-2.9,6.6-6.5,6.6s-6.5-2.9-6.5-6.5c0,0,0-0.1,0-0.1H37.8v2.7
			c0,0.6,0.4,1.1,1,1.2l5,1.3c0.3,0.9,0.6,1.8,1.1,2.7l-2.7,4.4c-0.3,0.5-0.2,1.2,0.2,1.6l3.7,3.7c0.4,0.4,1.1,0.5,1.6,0.2l4.4-2.7
			c0.9,0.4,1.7,0.8,2.7,1.1l1.2,5c0.2,0.6,0.7,1,1.3,1h5.2c0.6,0,1.1-0.4,1.3-1l1.2-5c0.9-0.3,1.8-0.6,2.7-1.1l4.4,2.7
			c0.5,0.3,1.2,0.2,1.6-0.2l3.7-3.7c0.4-0.4,0.5-1.1,0.2-1.6l-2.7-4.4c0.4-0.9,0.8-1.7,1.1-2.7l5.2-1.3c0.6-0.1,1-0.6,1-1.2V79H66.4
			z"/>
	</g>
</g>
</svg>
