<?xml version="1.0" encoding="utf-8"?>
<!-- Generator: Adobe Illustrator 18.0.0, SVG Export Plug-In . SVG Version: 6.00 Build 0)  -->
<!DOCTYPE svg PUBLIC "-//W3C//DTD SVG 1.1//EN" "http://www.w3.org/Graphics/SVG/1.1/DTD/svg11.dtd">
<svg version="1.1" id="Layer_1" xmlns="http://www.w3.org/2000/svg" xmlns:xlink="http://www.w3.org/1999/xlink" x="0px" y="0px"
	 viewBox="0 0 100 100" enable-background="new 0 0 100 100" xml:space="preserve">
<g display="none">
	<g display="inline">
		<path fill="#FFFFFF" d="M86.4,42.3l-5.4-0.9c-0.7-2.5-1.7-5-3-7.2l3.2-4.5c0.8-1.1,0.8-2.7-0.3-3.7l-6.9-6.9
			c-0.9-1-2.5-1.1-3.7-0.3L65.8,22c-2.3-1.2-4.7-2.3-7.1-2.9l-0.9-5.4c-0.2-1.4-1.4-2.3-2.8-2.3h-9.8c-1.4,0-2.6,0.9-2.8,2.3
			l-0.9,5.4c-2.5,0.7-5,1.7-7.2,3l-4.5-3.2c-1.1-0.8-2.7-0.8-3.7,0.3l-6.9,6.9c-1,0.9-1.1,2.5-0.3,3.7l3.2,4.5
			c-1.2,2.3-2.3,4.7-2.9,7.1l-5.4,0.9c-1.4,0.2-2.3,1.4-2.3,2.8v9.8c0,1.4,0.9,2.6,2.3,2.8l5.4,0.9c0.7,2.5,1.7,5,3,7.2l-3.2,4.5
			c-0.8,1.1-0.8,2.7,0.3,3.7l6.9,6.9c0.9,1,2.5,1.1,3.7,0.3l4.5-3.2c2.3,1.2,4.7,2.3,7.1,2.9l0.9,5.4c0.2,1.4,1.4,2.3,2.8,2.3h9.8
			c1.4,0,2.6-0.9,2.8-2.3l0.9-5.4c2.5-0.7,5-1.7,7.2-3l4.5,3.2c1.1,0.8,2.7,0.8,3.7-0.3l6.9-6.9c1-0.9,1.1-2.5,0.3-3.7L78,65.8
			c1.2-2.3,2.3-4.7,2.9-7.1l5.4-0.9c1.4-0.2,2.3-1.4,2.3-2.8v-9.8C88.7,43.7,87.8,42.5,86.4,42.3z M50,65.5
			c-8.5,0-15.5-6.9-15.5-15.5S41.5,34.5,50,34.5S65.5,41.5,65.5,50S58.5,65.5,50,65.5z"/>
	</g>
</g>
<g display="none">
	<g display="inline">
		<g>
			<polygon fill="#FDFEFF" points="59.7,11.1 59.7,30.5 79.2,30.5 			"/>
		</g>
	</g>
	<g display="inline">
		<g>
			<path fill="#FDFEFF" d="M59.7,35.4c-2.7,0-4.9-2.2-4.9-4.9V11.1H25.7c-2.7,0-4.9,2.2-4.9,4.9v68.1c0,2.7,2.2,4.9,4.9,4.9h48.7
				c2.7,0,4.9-2.2,4.9-4.9V35.4H59.7z M40.3,79.2h-9.7V64.6h9.7V79.2z M54.9,79.2h-9.7V54.9h9.7V79.2z M69.5,79.2h-9.7V45.1h9.7
				V79.2z"/>
		</g>
	</g>
</g>
<g display="none">
	<g display="inline">
		<g>
			<path fill="#FFFFFF" d="M24.8,69.1c-0.3,1.5-1,1.6-2.4,1.7v0.5h2.3v6.5h0.8v-8.8H24.8z"/>
		</g>
	</g>
	<g display="inline">
		<g>
			<path fill="#FFFFFF" d="M34.7,75c2-1.1,3.8-2.2,2.9-4.4c-0.9-2.4-5.4-2-5.4,1.4h0.8c-0.1-2.3,2.8-3.1,3.7-1.2
				c1.3,3.1-3.9,2.9-4.7,5.9C32,77.1,32,77.5,32,77.9h5.8v-0.7h-4.9C32.9,76.2,33.8,75.5,34.7,75z"/>
		</g>
	</g>
	<g display="inline">
		<g>
			<path fill="#FFFFFF" d="M47.7,73.2c0.9-0.4,1.2-1.1,1.2-2c0-2.9-5.4-3.2-5.4,0.4h0.8c0-2.2,2.9-2.5,3.6-1c0.6,1.2,0,2.4-2.4,2.4
				v0.6c3.5-0.2,3.5,2.8,1.5,3.6c-1.4,0.5-3.1-0.1-3.1-1.9h-0.8c0.2,2,1,2.7,3.1,2.7C49.7,78,50.3,74.1,47.7,73.2z"/>
		</g>
	</g>
	<g display="inline">
		<g>
			<path fill="#FFFFFF" d="M59.3,75.1v-5.9h-0.7L54.5,75v0.7h4v2.2h0.8v-2.2h1.2v-0.7H59.3z M58.5,75.1h-3.2l3.2-4.7V75.1z"/>
		</g>
	</g>
	<g display="inline">
		<g>
			<rect x="49.8" y="15.4" fill="#FFFFFF" width="6.2" height="18.7"/>
		</g>
	</g>
	<g display="inline">
		<g>
			<rect x="59.2" y="15.4" fill="#FFFFFF" width="12.5" height="18.7"/>
		</g>
	</g>
	<g display="inline">
		<g>
			<rect x="78" y="15.4" fill="#FFFFFF" width="6.2" height="18.7"/>
		</g>
	</g>
	<g display="inline">
		<g>
			<rect x="34.2" y="15.4" fill="#FFFFFF" width="9.4" height="18.7"/>
		</g>
	</g>
	<g display="inline">
		<g>
			<rect x="21.7" y="15.4" fill="#FFFFFF" width="6.2" height="18.7"/>
		</g>
	</g>
	<g display="inline">
		<g>
			<rect x="9.2" y="15.4" fill="#FFFFFF" width="9.4" height="18.7"/>
		</g>
	</g>
	<path display="inline" fill="#FFFFFF" d="M64.3,65.4c0.8-4.7,3.5-8.8,7.4-11.2v-7.5H78v5.3c0.8-0.1,1.5-0.2,2.3-0.2
		c1.3,0,2.7,0.2,3.9,0.5v-5.6h6.2v-6.2H3v6.2h6.2v31.2h9.4V46.7h3.1v18.7H28V46.7h6.2v18.7h9.4V46.7h6.2v18.7h6.2V46.7h3.1v18.7
		H64.3z"/>
	<g display="inline">
		<g>
			<path fill="#FFFFFF" d="M96.1,67.1l-2.1-0.4c-0.2-1-0.6-1.9-1.1-2.7l1.2-1.7c0.3-0.4,0.3-1-0.1-1.4l-2.6-2.6
				c-0.4-0.4-1-0.4-1.4-0.1l-1.7,1.2c-0.8-0.5-1.8-0.8-2.7-1.1l-0.4-2.1c-0.1-0.5-0.5-0.9-1.1-0.9h-3.7c-0.5,0-1,0.4-1.1,0.9
				l-0.4,2.1c-1,0.2-1.9,0.6-2.7,1.1l-1.7-1.2c-0.4-0.3-1-0.3-1.4,0.1L70.7,61c-0.4,0.4-0.4,1-0.1,1.4l1.2,1.7
				c-0.5,0.8-0.8,1.8-1.1,2.7l-2.1,0.4c-0.5,0.1-0.9,0.5-0.9,1.1v3.7c0,0.5,0.4,1,0.9,1.1l2.1,0.4c0.2,1,0.6,1.9,1.1,2.7l-1.2,1.7
				c-0.3,0.4-0.3,1,0.1,1.4l2.6,2.6c0.4,0.4,1,0.4,1.4,0.1l1.7-1.2c0.8,0.5,1.8,0.8,2.7,1.1l0.4,2.1c0.1,0.5,0.5,0.9,1.1,0.9h3.7
				c0.5,0,1-0.4,1.1-0.9l0.4-2.1c1-0.2,1.9-0.6,2.7-1.1l1.7,1.2c0.4,0.3,1,0.3,1.4-0.1l2.6-2.6c0.4-0.4,0.4-1,0.1-1.4L93,75.9
				c0.5-0.8,0.8-1.8,1.1-2.7l2.1-0.4c0.5-0.1,0.9-0.5,0.9-1.1v-3.7C97,67.6,96.7,67.1,96.1,67.1z M82.4,75.8c-3.2,0-5.8-2.6-5.8-5.8
				c0-3.2,2.6-5.8,5.8-5.8s5.8,2.6,5.8,5.8C88.2,73.2,85.6,75.8,82.4,75.8z"/>
		</g>
	</g>
</g>
<g>
	<path id="XMLID_894_" fill="#FFFFFF" d="M46.9,79v4.4H17.7v5.8h64.5v-5.8H52.7V79H46.9z"/>
	<path fill="#FFFFFF" d="M9.7,10.8v65.9h80.6V10.8H9.7z M85,71.5H15V16H85V71.5z"/>
	<path fill="#FFFFFF" d="M32.6,41.8l-9.4,9.8v16.5c0,0.5,0.4,0.8,0.8,0.8h11.4c0.5,0,0.8-0.4,0.8-0.8V42.7l-2.6-1H32.6z"/>
	<path fill="#FFFFFF" d="M55.9,49.4H44.5c-0.5,0-0.8,0.4-0.8,0.8v17.8c0,0.5,0.4,0.8,0.8,0.8h11.4c0.5,0,0.8-0.4,0.8-0.8V50.3
		C56.7,49.8,56.4,49.4,55.9,49.4z"/>
	<path fill="#FFFFFF" d="M72.5,31.3l-2.1-1.7l-7.5,8.2v30.3c0,0.5,0.4,0.8,0.8,0.8h11.4c0.5,0,0.8-0.4,0.8-0.8V31.6
		c0,0-0.1,0.1-0.1,0.1C75.5,31.9,75,32,74.5,32C73.8,32,73.1,31.8,72.5,31.3z"/>
	<path fill="#FFFFFF" d="M20.4,50.3c0.4,0,0.9-0.2,1.2-0.5l10.8-11.2l18.8,6.9c0.6,0.2,1.4,0.1,1.8-0.4l17.3-18.9l4.1,3.4
		c0.2,0.2,0.5,0.2,0.7,0.1c0.2-0.1,0.4-0.4,0.3-0.6l-0.9-9.8c0-0.4-0.3-0.6-0.7-0.6l-9.8,0.9c-0.3,0-0.5,0.2-0.6,0.4
		c0,0.1,0,0.2,0,0.2c0,0.2,0.1,0.3,0.2,0.4l4.1,3.4L51.3,42L32.5,35c-0.6-0.2-1.3-0.1-1.8,0.4l-11.5,12c-0.6,0.7-0.6,1.7,0,2.4
		C19.6,50.1,20,50.3,20.4,50.3z"/>
</g>
<g display="none">
	<g display="inline">
		<polygon fill="#098CCD" points="50,11 4.1,52.3 17.8,52.3 17.8,89 40.8,89 40.8,61.5 59.2,61.5 59.2,89 82.2,89 82.2,52.3 
			95.9,52.3 		"/>
	</g>
</g>
<g display="none">
	<g display="inline">
		<path fill="#098CCD" d="M48.9,79.7v1.4c0,0.8-0.6,1.4-1.4,1.4s-1.4-0.6-1.4-1.4v-1.4h-3.3c-0.5,0-0.9,0.4-0.9,0.9v7.5
			c0,0.5,0.4,0.9,0.9,0.9h9.3c0.5,0,0.9-0.4,0.9-0.9v-7.5c0-0.5-0.4-0.9-0.9-0.9H48.9z"/>
		<path fill="#098CCD" d="M61.9,79.7v1.4c0,0.8-0.6,1.4-1.4,1.4s-1.4-0.6-1.4-1.4v-1.4h-3.3c-0.5,0-0.9,0.4-0.9,0.9v7.5
			c0,0.5,0.4,0.9,0.9,0.9h9.3c0.5,0,0.9-0.4,0.9-0.9v-7.5c0-0.5-0.4-0.9-0.9-0.9H61.9z"/>
		<path fill="#098CCD" d="M55.4,68.5v1.4c0,0.8-0.6,1.4-1.4,1.4s-1.4-0.6-1.4-1.4v-1.4h-3.3c-0.5,0-0.9,0.4-0.9,0.9v7.5
			c0,0.5,0.4,0.9,0.9,0.9h9.3c0.5,0,0.9-0.4,0.9-0.9v-7.5c0-0.5-0.4-0.9-0.9-0.9H55.4z"/>
	</g>
	<g display="inline">
		<path fill="#098CCD" d="M93,36.7L56.2,11.4c-0.8-0.6-2-0.6-2.9,0L16.6,36.7c-0.7,0.5-1.2,1.2-1.2,2v23.7h10V50.1
			c0-1.8,1.4-3.7,3.1-3.7h52.1c1.8,0,2.7,1.9,2.7,3.7v38.3c0,0,4,0,11,0V38.7C94.4,37.9,93.6,37.1,93,36.7z"/>
		<rect x="15.4" y="72.4" fill="#098CCD" width="10" height="16"/>
	</g>
	<g display="inline">
		<g>
			<path fill="#098CCD" d="M29.4,57.8c-0.2,0.1-0.3,0.2-0.3,0.4v4.9H6.3c-0.2,0-0.5,0.2-0.5,0.5v7.2c0,0.2,0.2,0.5,0.5,0.5h22.7v5
				c0,0.2,0.1,0.3,0.3,0.4c0.2,0.1,0.4,0,0.5-0.1l9-9c0.1-0.1,0.1-0.2,0.1-0.3c0-0.1,0-0.2-0.1-0.3l-9-9
				C29.7,57.8,29.5,57.8,29.4,57.8z"/>
		</g>
	</g>
</g>
<g display="none">
	<g display="inline">
		<path fill="#098CCD" d="M37.5,79.7v1.4c0,0.8-0.6,1.4-1.4,1.4s-1.4-0.6-1.4-1.4v-1.4h-3.3c-0.5,0-0.9,0.4-0.9,0.9v7.5
			c0,0.5,0.4,0.9,0.9,0.9h9.3c0.5,0,0.9-0.4,0.9-0.9v-7.5c0-0.5-0.4-0.9-0.9-0.9H37.5z"/>
		<path fill="#098CCD" d="M50.5,79.7v1.4c0,0.8-0.6,1.4-1.4,1.4c-0.8,0-1.4-0.6-1.4-1.4v-1.4h-3.3c-0.5,0-0.9,0.4-0.9,0.9v7.5
			c0,0.5,0.4,0.9,0.9,0.9h9.3c0.5,0,0.9-0.4,0.9-0.9v-7.5c0-0.5-0.4-0.9-0.9-0.9H50.5z"/>
		<path fill="#098CCD" d="M44,68.5v1.4c0,0.8-0.6,1.4-1.4,1.4s-1.4-0.6-1.4-1.4v-1.4h-3.3c-0.5,0-0.9,0.4-0.9,0.9v7.5
			c0,0.5,0.4,0.9,0.9,0.9h9.3c0.5,0,0.9-0.4,0.9-0.9v-7.5c0-0.5-0.4-0.9-0.9-0.9H44z"/>
	</g>
	<g display="inline">
		<path fill="#098CCD" d="M72.4,50.1v12.3h9V38.7c0-0.8-0.2-1.6-0.8-2L44,11.4c-0.8-0.6-1.9-0.6-2.7,0L5.1,36.7
			c-0.7,0.5-0.7,1.2-0.7,2v49.7h9V50.1c0-1.8,1.5-3.7,3.3-3.7h52.1C70.6,46.4,72.4,48.3,72.4,50.1z"/>
		<path fill="#098CCD" d="M72.4,72.4v16c0,0,3,0,9,0v-16H72.4z"/>
	</g>
	<g display="inline">
		<g>
			<path fill="#098CCD" d="M86.2,57.8c-0.2,0.1-0.3,0.2-0.3,0.4v4.9H63.2c-0.2,0-0.5,0.2-0.5,0.5v7.2c0,0.2,0.2,0.5,0.5,0.5H86v5
				c0,0.2,0.1,0.3,0.3,0.4c0.2,0.1,0.4,0,0.5-0.1l9-9c0.1-0.1,0.1-0.2,0.1-0.3c0-0.1,0-0.2-0.1-0.3l-9-9
				C86.6,57.8,86.4,57.8,86.2,57.8z"/>
		</g>
	</g>
</g>
<g display="none">
	<path display="inline" fill="#098CCD" d="M20.5,89.3V50c0-1.8,1.5-3.3,3.3-3.3h52.4c1.8,0,3.3,1.5,3.3,3.3v39.3c0,0,3.8,0,9.8,0
		V38.5c0-0.8-0.4-1.6-1.1-2L51.4,11.1c-0.8-0.6-1.9-0.6-2.8,0L11.7,36.5c-0.7,0.5-1.1,1.2-1.1,2v50.8"/>
	<path display="inline" fill="#098CCD" d="M41,72.9v2.5c0,1.4-1.1,2.5-2.5,2.5s-2.5-1.1-2.5-2.5v-2.5h-5.7c-0.9,0-1.6,0.7-1.6,1.6
		v13.1c0,0.9,0.7,1.6,1.6,1.6h16.4c0.9,0,1.6-0.7,1.6-1.6V74.6c0-0.9-0.7-1.6-1.6-1.6H41z"/>
	<path display="inline" fill="#098CCD" d="M63.9,72.9v2.5c0,1.4-1.1,2.5-2.5,2.5S59,76.8,59,75.4v-2.5h-5.7c-0.9,0-1.6,0.7-1.6,1.6
		v13.1c0,0.9,0.7,1.6,1.6,1.6h16.4c0.9,0,1.6-0.7,1.6-1.6V74.6c0-0.9-0.7-1.6-1.6-1.6H63.9z"/>
	<path display="inline" fill="#098CCD" d="M52.5,53.3v2.5c0,1.4-1.1,2.5-2.5,2.5s-2.5-1.1-2.5-2.5v-2.5h-5.7c-0.9,0-1.6,0.7-1.6,1.6
		V68c0,0.9,0.7,1.6,1.6,1.6h16.4c0.9,0,1.6-0.7,1.6-1.6V54.9c0-0.9-0.7-1.6-1.6-1.6H52.5z"/>
</g>
<g display="none">
	<g display="inline">
		<g>
			<path fill="#098CCD" d="M48.8,58.7c-0.1-0.2-0.3-0.4-0.5-0.4h-6.3V29.3c0-0.3-0.6-0.6-1.1,0l-8.5,9.8c-0.3,0.2-0.8,0.9-0.8,1.2
				v18.1h-6.3c-0.2,0-0.4,0.1-0.5,0.4c-0.1,0.2,0,0.5,0.1,0.6l11.5,11.5c0.1,0.1,0.3,0.2,0.4,0.2c0.2,0,0.3-0.1,0.4-0.2l11.5-11.5
				C48.8,59.2,48.9,58.9,48.8,58.7z"/>
		</g>
	</g>
	<g display="inline">
		<g>
			<path fill="#098CCD" d="M50,41.3c0.1,0.2,0.3,0.4,0.5,0.4h6.3v29.1c0,0.3,0.6,0.6,1.1,0l8.5-9.8c0.3-0.2,0.8-0.9,0.8-1.2V41.6
				h6.3c0.2,0,0.4-0.1,0.5-0.4c0.1-0.2,0-0.5-0.1-0.6L62.5,29.1c-0.1-0.1-0.3-0.2-0.4-0.2c-0.2,0-0.3,0.1-0.4,0.2L50.2,40.6
				C50,40.8,50,41.1,50,41.3z"/>
		</g>
	</g>
	<g display="inline">
		<g>
			<path fill="#098CCD" d="M50,11.4c-21.2,0-38.6,17.3-38.6,38.6c0,21.2,17.3,38.6,38.6,38.6c21.2,0,38.6-17.3,38.6-38.6
				C88.6,28.8,71.2,11.4,50,11.4z M50,84.1c-18.8,0-34.1-15.3-34.1-34.1S31.2,15.9,50,15.9S84.1,31.2,84.1,50S68.8,84.1,50,84.1z"/>
		</g>
	</g>
</g>
<g display="none">
	<g transform="translate(1 1)" display="inline">
		<g>
			<path fill="#098CCD" d="M90.4,42.8L51.8,7.7l-0.4-0.3c-0.3-0.2-0.5-0.4-0.8-0.6c0,0,0,0,0,0c-1-0.5-2.1-0.5-3,0c0,0,0,0,0,0
				c-0.3,0.1-0.6,0.3-0.8,0.6l-0.4,0.3L7.6,42.8c-1.4,1.3-1.6,3.6-0.2,5c1.3,1.4,3.6,1.6,5,0.2l1.2-1.1v41c0,2,1.6,3.5,3.5,3.5h17.7
				h28.4h17.7c2,0,3.5-1.6,3.5-3.5V47l1.2,1.1c1.4,1.3,3.7,1.2,5-0.2C92,46.4,91.9,44.1,90.4,42.8z M34.8,84.5H20.6V40.6L49,14.8
				l28.4,25.8v43.9H63.2"/>
		</g>
	</g>
	<g display="inline">
		<g>
			<g>
				<g>
					<path fill="#098CCD" d="M50,32.3c-4,0-7.2,3.2-7.2,7.2c0,2.7,1.5,5,3.7,6.3c1,0.6,2.2,0.9,3.5,0.9s2.5-0.3,3.5-0.9
						c2.2-1.2,3.7-3.6,3.7-6.3C57.2,35.5,54,32.3,50,32.3z"/>
				</g>
			</g>
			<g>
				<g>
					<path fill="#098CCD" d="M37.4,39c-3,0-5.4,2.4-5.4,5.4s2.4,5.4,5.4,5.4c0.8,0,1.5-0.2,2.1-0.4c1.1-0.5,2-1.3,2.6-2.4
						c0.4-0.8,0.6-1.6,0.6-2.5C42.8,41.4,40.4,39,37.4,39z"/>
				</g>
			</g>
			<g>
				<g>
					<path fill="#098CCD" d="M62.6,39c-3,0-5.4,2.4-5.4,5.4c0,0.9,0.2,1.8,0.6,2.5c0.6,1.1,1.5,1.9,2.6,2.4c0.6,0.3,1.4,0.4,2.1,0.4
						c3,0,5.4-2.4,5.4-5.4S65.6,39,62.6,39z"/>
				</g>
			</g>
			<path fill="#098CCD" d="M53.7,48.1h-7.3c-3.3,0-6,2.7-6,6v8.1h19.2v-8.1C59.6,50.8,56.9,48.1,53.7,48.1z"/>
			<path fill="#098CCD" d="M62,62.2h8.7v-5c0-3.3-2.7-6-6-6h-3.2c0.3,0.9,0.5,1.9,0.5,2.9V62.2z"/>
			<path fill="#098CCD" d="M38,62.2v-8.1c0-1,0.2-2,0.5-2.9h-3.2c-3.3,0-6,2.7-6,6v5H38z"/>
		</g>
		<path fill="#098CCD" d="M54.9,64.7C54.9,64.7,54.9,64.7,54.9,64.7c0,2.8-2.2,5.1-5,5.1s-5-2.2-5-5c0,0,0,0,0-0.1h-12v2.1
			c0,0.5,0.3,0.9,0.8,1l3.9,1c0.2,0.7,0.5,1.4,0.8,2l-2,3.4c-0.2,0.4-0.2,0.9,0.1,1.2l2.8,2.8c0.3,0.3,0.8,0.4,1.2,0.1l3.4-2
			c0.7,0.3,1.3,0.6,2,0.8l1,3.9c0.1,0.4,0.5,0.8,1,0.8h4c0.5,0,0.9-0.3,1-0.8l1-3.9c0.7-0.2,1.4-0.5,2-0.8l3.4,2
			c0.4,0.2,0.9,0.2,1.2-0.1l2.8-2.8c0.3-0.3,0.4-0.8,0.1-1.2l-2-3.4c0.3-0.7,0.6-1.3,0.8-2l4-1c0.4-0.1,0.8-0.5,0.8-1v-2.1H54.9z"/>
	</g>
</g>
<g display="none">
	<g display="inline">
		<g>
			<g>
				<path fill="#686868" d="M29.5,23.4c-0.1-0.2-0.2-0.2-0.4-0.2h-1.7v-5.5c0-0.2-0.2-0.4-0.4-0.4h-1.7c-0.2,0-0.4,0.2-0.4,0.4v5.5
					h-1.7c-0.2,0-0.3,0.1-0.4,0.2c-0.1,0.2,0,0.3,0.1,0.5l3,3.4c0.1,0.1,0.2,0.1,0.3,0.1s0.2-0.1,0.3-0.1l3-3.4
					C29.6,23.7,29.6,23.5,29.5,23.4z"/>
			</g>
		</g>
		<g>
			<g>
				<path fill="#686868" d="M30.8,26.5v2.6h-9.4v-2.6h-1.7v3.4c0,0.5,0.4,0.9,0.9,0.9h11.1c0.5,0,0.9-0.4,0.9-0.9v-3.4H30.8z"/>
			</g>
		</g>
	</g>
	<g display="inline">
		<g>
			<path fill="#686868" d="M25.8,8.6c-8.3,0-15.1,6.8-15.1,15.1c0,8.3,6.8,15.1,15.1,15.1c8.3,0,15.1-6.8,15.1-15.1
				C40.9,15.4,34.1,8.6,25.8,8.6z M25.8,37c-7.3,0-13.3-6-13.3-13.3s6-13.3,13.3-13.3s13.3,6,13.3,13.3S33.2,37,25.8,37z"/>
		</g>
	</g>
</g>
</svg>
