<?xml version="1.0" encoding="utf-8"?>
<!-- Generator: Adobe Illustrator 18.0.0, SVG Export Plug-In . SVG Version: 6.00 Build 0)  -->
<!DOCTYPE svg PUBLIC "-//W3C//DTD SVG 1.1//EN" "http://www.w3.org/Graphics/SVG/1.1/DTD/svg11.dtd">
<svg version="1.1" id="Layer_1" xmlns="http://www.w3.org/2000/svg" xmlns:xlink="http://www.w3.org/1999/xlink" x="0px" y="0px"
	 viewBox="430 230 100 100" enable-background="new 430 230 100 100" xml:space="preserve">
<g display="none">
	<g display="inline">
		<path fill="#098CCD" d="M3799.3-1479.4l-169.1-28c-21.8-78.4-53.2-156.8-94.1-225.7l100.2-141.1c25.2-34.7,25.2-84.6-9.5-115.9
			l-216.2-216.7c-28-31.4-78.4-34.7-115.9-9.5l-141.1,100.2c-72.2-37.5-147.3-72.2-222.9-90.7l-28-169.1
			c-6.2-43.7-43.7-72.2-87.9-72.2h-307.4c-43.7,0-81.8,28-87.9,72.2l-28,169.1c-78.4,21.8-156.8,53.2-225.7,94.1L2024.6-2213
			c-34.7-25.2-84.6-25.2-115.9,9.5l-216.2,216.2c-31.4,28-34.7,78.4-9.5,115.9l100.2,141.1c-37.5,72.2-72.2,147.3-90.7,222.9
			l-169.1,28c-43.7,6.2-72.2,43.7-72.2,87.9v307.4c0,43.7,28,81.8,72.2,87.9l169.1,28c21.8,78.4,53.2,156.8,94.1,225.7l-100.2,141.1
			c-25.2,34.7-25.2,84.6,9.5,115.9l216.2,216.2c28,31.4,78.4,34.7,115.9,9.5l141.1-100.2c72.2,37.5,147.3,72.2,222.9,90.7l28,169.1
			c6.2,43.7,43.7,72.2,87.9,72.2h306.9c43.7,0,81.8-28,87.9-72.2l28-169.1c78.4-21.8,156.8-53.2,225.7-94.1L3297.5-263
			c34.7,25.2,84.6,25.2,115.9-9.5l216.2-216.2c31.4-28,34.7-78.4,9.5-115.9l-103.6-137.8c37.5-72.2,72.2-147.3,90.7-222.9l169.1-28
			c43.7-6.2,72.2-43.7,72.2-87.9v-307.4C3871.5-1435.7,3843.5-1473.2,3799.3-1479.4z M2658-751.9c-266.6,0-486.1-216.2-486.1-486.1
			s219.5-486.1,486.1-486.1s486.1,219.5,486.1,486.1S2924.6-751.9,2658-751.9z"/>
	</g>
</g>
<g display="none">
	<g display="inline">
		<g>
			<polygon fill="#098CCD" points="2962.1,-2457.7 2962.1,-1849.5 3573.6,-1849.5 			"/>
		</g>
	</g>
	<g display="inline">
		<g>
			<path fill="#098CCD" d="M2962.1-1696.1c-84.6,0-153.4-68.9-153.4-153.4v-608.2h-912.8c-84.6,0-153.4,68.9-153.4,153.4v2135.8
				c0,84.6,68.9,153.4,153.4,153.4H3423c84.6,0,153.4-68.9,153.4-153.4v-1527.7H2962.1z M2353.9-322.4h-304.1v-458.1h304.1V-322.4z
				 M2811.4-322.4h-304.1v-762.2h304.1V-322.4z M3269.5-322.4h-304.1V-1392h304.1V-322.4z"/>
		</g>
	</g>
</g>
<g display="none">
	<g display="inline">
		<g>
			<path fill="#098CCD" d="M1867.8-638.8c-9.5,47-31.4,50.4-75,53.2v15.7h72.2v203.8h25.2v-276.1h-21.8v3.4H1867.8z"/>
		</g>
	</g>
	<g display="inline">
		<g>
			<path fill="#098CCD" d="M2178.1-454c62.7-34.7,119.3-68.9,90.7-137.8c-28-75-169.1-62.7-169.1,43.7h25.2
				c-3.4-72.2,87.9-97.4,115.9-37.5c40.9,97.4-122.1,90.7-147.3,184.8c0,12.3,0,25.2,0,37.5h182v-21.8h-153.4
				C2121.5-416.5,2150.1-438.3,2178.1-454z"/>
		</g>
	</g>
	<g display="inline">
		<g>
			<path fill="#098CCD" d="M2585.8-510.6c28-12.3,37.5-34.7,37.5-62.7c0-90.7-169.1-100.2-169.1,12.3h25.2
				c0-68.9,90.7-78.4,113.1-31.4c19,37.5,0,75-75,75v19c109.8-6.2,109.8,87.9,47,113.1c-43.7,15.7-97.4-3.4-97.4-59.4h-25.2
				c6.2,62.7,31.4,84.6,97.4,84.6C2648.5-359.9,2667.5-482,2585.8-510.6z"/>
		</g>
	</g>
	<g display="inline">
		<g>
			<path fill="#098CCD" d="M2949.8-450.6v-184.8h-21.8l-128.8,182v21.8h125.4v68.9h25.2v-68.9h37.5V-454h-37.5V-450.6z
				 M2924.6-450.6h-100.2l100.2-147.3V-450.6z"/>
		</g>
	</g>
	<g display="inline">
		<g>
			<rect x="2651.8" y="-2323.3" fill="#098CCD" width="194.3" height="586.3"/>
		</g>
	</g>
	<g display="inline">
		<g>
			<rect x="2946.4" y="-2323.3" fill="#098CCD" width="392" height="586.3"/>
		</g>
	</g>
	<g display="inline">
		<g>
			<rect x="3536.1" y="-2323.3" fill="#098CCD" width="194.3" height="586.3"/>
		</g>
	</g>
	<g display="inline">
		<g>
			<rect x="2162.4" y="-2323.3" fill="#098CCD" width="294.6" height="586.3"/>
		</g>
	</g>
	<g display="inline">
		<g>
			<rect x="1770.4" y="-2323.3" fill="#098CCD" width="194.3" height="586.3"/>
		</g>
	</g>
	<g display="inline">
		<g>
			<rect x="1378.4" y="-2323.3" fill="#098CCD" width="294.6" height="586.3"/>
		</g>
	</g>
	<path display="inline" fill="#098CCD" d="M3106.6-755.3c25.2-147.3,109.8-276.1,231.8-351.1v-235.2h197.7v166.3
		c25.2-3.4,47-6.2,72.2-6.2c40.9,0,84.6,6.2,122.1,15.7v-175.8h194.3v-194.3H1184.1v194.3h194.3v978.3H1673v-978.3h97.4v586.3h197.7
		v-586.3h194.3v586.3H2457v-586.3h194.3v586.3h194.3v-586.3h98v586.3H3106.6z"/>
	<g display="inline">
		<g>
			<path fill="#098CCD" d="M4103.9-701.5l-66.1-12.3c-6.2-31.4-19-59.4-34.7-84.6l37.5-53.2c9.5-12.3,9.5-31.4-3.4-43.7l-81.8-81.8
				c-12.3-12.3-31.4-12.3-43.7-3.4l-53.2,37.5c-25.2-15.7-56.6-25.2-84.6-34.7l-12.3-66.1c-3.4-15.7-15.7-28-34.7-28h-115.9
				c-15.7,0-31.4,12.3-34.7,28l-12.3,66.1c-31.4,6.2-59.4,19-84.6,34.7l-53.2-37.5c-12.3-9.5-31.4-9.5-43.7,3.4l-75,84.6
				c-12.3,12.3-12.3,31.4-3.4,43.7l37.5,53.2c-15.7,25.2-25.2,56.6-34.7,84.6l-66.1,12.3c-15.7,3.4-28,15.7-28,34.7v115.9
				c0,15.7,12.3,31.4,28,34.7L3307-501c6.2,31.4,19,59.4,34.7,84.6l-37.5,53.2c-9.5,12.3-9.5,31.4,3.4,43.7l81.8,81.8
				c12.3,12.3,31.4,12.3,43.7,3.4l53.2-37.5c25.2,15.7,56.6,25.2,84.6,34.7l12.3,66.1c3.4,15.7,15.7,28,34.7,28h115.9
				c15.7,0,31.4-12.3,34.7-28l12.3-66.1c31.4-6.2,59.4-19,84.6-34.7l53.2,37.5c12.3,9.5,31.4,9.5,43.7-3.4l81.8-81.8
				c12.3-12.3,12.3-31.4,3.4-43.7l-40.9-62.7c15.7-25.2,25.2-56.6,34.7-84.6l66.1-12.3c15.7-3.4,28-15.7,28-34.7v-115.9
				C4131.9-685.8,4122.4-701.5,4103.9-701.5z M3673.8-428.8c-100.2,0-182-81.8-182-182s81.8-182,182-182s182,81.8,182,182
				S3774.6-428.8,3673.8-428.8z"/>
		</g>
	</g>
</g>
<g display="none">
	<path id="XMLID_894_" display="inline" fill="#098CCD" d="M2560.6-328.6v137.8H1645v182h2022.7v-182h-925.1v-137.8H2560.6z"/>
	<path display="inline" fill="#098CCD" d="M1394.1-2467.2v2066.4h2527.8v-2066.4H1394.1z M3755.6-563.8H1560.4v-1740.5h2195.2
		V-563.8z"/>
	<path display="inline" fill="#098CCD" d="M2112.6-1495l-295.1,307.4v517.4c0,15.7,12.3,25.2,25.2,25.2h357.3
		c15.7,0,25.2-12.3,25.2-25.2V-1467l-81.8-31.4H2112v3.4H2112.6z"/>
	<path display="inline" fill="#098CCD" d="M2842.8-1257h-357.3c-15.7,0-25.2,12.3-25.2,25.2v558.3c0,15.7,12.3,25.2,25.2,25.2h357.3
		c15.7,0,25.2-12.3,25.2-25.2v-555C2868-1244.2,2858.5-1257,2842.8-1257z"/>
	<path display="inline" fill="#098CCD" d="M3363.6-1824.3l-66.1-53.2l-235.2,257v950.3c0,15.7,12.3,25.2,25.2,25.2h357.3
		c15.7,0,25.2-12.3,25.2-25.2v-1144.6l-3.4,3.4c-9.5,6.2-25.2,9.5-40.9,9.5C3404.5-1802.5,3382.6-1808.6,3363.6-1824.3z"/>
	<path display="inline" fill="#098CCD" d="M1729.5-1228.5c12.3,0,28-6.2,37.5-15.7l338.8-351.1l589.7,216.2
		c19,6.2,43.7,3.4,56.6-12.3l542.6-592.5l128.8,106.4c6.2,6.2,15.7,6.2,21.8,3.4c6.2-2.8,12.3-12.3,9.5-19l-28-307.4
		c0-12.3-9.5-19-21.8-19l-307.4,28c-9.5,0-15.7,6.2-19,12.3c0,3.4,0,6.2,0,6.2c0,6.2,3.4,9.5,6.2,12.3l128.8,106.4L2699.4-1490
		l-590.2-218.4c-19-6.2-40.9-3.4-56.6,12.3L1692-1319.8c-19,21.8-19,53.2,0,75C1704.9-1234.6,1717.2-1228.5,1729.5-1228.5z"/>
</g>
<g display="none">
	<g display="inline">
		<polygon fill="#098CCD" points="2658,-2461 1218.8,-1165.8 1648.3,-1165.8 1648.3,-15 2369.6,-15 2369.6,-877.4 2946.4,-877.4 
			2946.4,-15 3667.7,-15 3667.7,-1165.8 4097.2,-1165.8 		"/>
	</g>
</g>
<g display="none">
	<g display="inline">
		<path fill="#098CCD" d="M2623.3-306.7v43.7c0,25.2-19,43.7-43.7,43.7c-24.6,0-43.7-19-43.7-43.7v-43.7h-103.6
			c-15.7,0-28,12.3-28,28v235.2c0,15.7,12.3,28,28,28h291.8c15.7,0,28-12.3,28-28v-235.2c0-15.7-12.3-28-28-28H2623.3z"/>
		<path fill="#098CCD" d="M3031-306.7v43.7c0,25.2-19,43.7-43.7,43.7c-25.2,0-43.7-19-43.7-43.7v-43.7H2840c-15.7,0-28,12.3-28,28
			v235.2c0,15.7,12.3,28,28,28h291.8c15.7,0,28-12.3,28-28v-235.2c0-15.7-12.3-28-28-28H3031z"/>
		<path fill="#098CCD" d="M2827.1-657.8v43.7c0,25.2-19,43.7-43.7,43.7c-24.6,0-43.7-19-43.7-43.7v-43.7h-103.6
			c-15.7,0-28,12.3-28,28v235.2c0,15.7,12.3,28,28,28h291.8c15.7,0,28-12.3,28-28v-235.2c0-15.7-12.3-28-28-28H2827.1z"/>
	</g>
	<g display="inline">
		<path fill="#098CCD" d="M4006.5-1655.2l-1154.2-793.5c-25.2-19-62.7-19-90.7,0l-1150.8,793.5c-21.8,15.7-37.5,37.5-37.5,62.7
			v743.1h313.6v-385.8c0-56.6,43.7-115.9,97.4-115.9h1634.1c56.6,0,84.6,59.4,84.6,115.9V-34c0,0,125.4,0,345,0v-1558.5
			C4050.2-1617.7,4025.5-1642.3,4006.5-1655.2z"/>
		<rect x="1572.7" y="-535.8" fill="#098CCD" width="313.6" height="501.8"/>
	</g>
	<g display="inline">
		<g>
			<path fill="#098CCD" d="M2011.8-993.3c-6.2,3.4-9.5,6.2-9.5,12.3v153.4h-714.6c-6.2,0-15.7,6.2-15.7,15.7v225.7
				c0,6.2,6.2,15.7,15.7,15.7h711.8v156.8c0,6.2,3.4,9.5,9.5,12.3c6.2,3.4,12.3,0,15.7-3.4L2306.9-687c3.4-3.4,3.4-6.2,3.4-9.5
				c0-3.4,0-6.2-3.4-9.5l-282.2-282.2C2021.3-993.3,2015.1-993.3,2011.8-993.3z"/>
		</g>
	</g>
</g>
<g display="none">
	<g display="inline">
		<path fill="#098CCD" d="M2266-306.7v43.7c0,25.2-19,43.7-43.7,43.7c-25.2,0-43.7-19-43.7-43.7v-43.7H2075c-15.7,0-28,12.3-28,28
			v235.2c0,15.7,12.3,28,28,28h291.8c15.7,0,28-12.3,28-28v-235.2c0-15.7-12.3-28-28-28H2266z"/>
		<path fill="#098CCD" d="M2673.7-306.7v43.7c0,25.2-19,43.7-43.7,43.7s-43.7-19-43.7-43.7v-43.7h-103.6c-15.7,0-28,12.3-28,28
			v235.2c0,15.7,12.3,28,28,28h291.8c15.7,0,28-12.3,28-28v-235.2c0-15.7-12.3-28-28-28H2673.7z"/>
		<path fill="#098CCD" d="M2469.8-657.8v43.7c0,25.2-19,43.7-43.7,43.7c-25.2,0-43.7-19-43.7-43.7v-43.7h-103.6
			c-15.7,0-28,12.3-28,28v235.2c0,15.7,12.3,28,28,28h291.8c15.7,0,28-12.3,28-28v-235.2c0-15.7-12.3-28-28-28H2469.8z"/>
	</g>
	<g display="inline">
		<path fill="#098CCD" d="M3360.2-1234.6v385.8h282.2v-743.7c0-25.2-6.2-50.4-25.2-62.7l-1148-793.5c-25.2-19-59.4-19-84.6,0
			l-1134.6,793.5c-21.8,15.7-21.8,37.5-21.8,62.7V-34H1510v-1200.6c0-56.6,47-115.9,103.6-115.9h1634.1
			C3304.2-1351.1,3360.2-1291.2,3360.2-1234.6z"/>
		<path fill="#098CCD" d="M3360.2-535.8V-34c0,0,94.1,0,282.2,0v-501.8H3360.2z"/>
	</g>
	<g display="inline">
		<g>
			<path fill="#098CCD" d="M3793.1-993.3c-6.2,3.4-9.5,6.2-9.5,12.3v153.4h-711.8c-6.2,0-15.7,6.2-15.7,15.7v225.7
				c0,6.2,6.2,15.7,15.7,15.7H3787v156.8c0,6.2,3.4,9.5,9.5,12.3c6.2,3.4,12.3,0,15.7-3.4L4094.4-687c3.4-3.4,3.4-6.2,3.4-9.5
				c0-3.4,0-6.2-3.4-9.5l-282.2-282.2C3806-993.3,3799.3-993.3,3793.1-993.3z"/>
		</g>
	</g>
</g>
<g display="none">
	<path display="inline" fill="#098CCD" d="M1732.9-5.4V-1238c0-56.6,47-103.6,103.6-103.6h1643c56.6,0,103.6,47,103.6,103.6V-5.4
		c0,0,119.3,0,307.4,0v-1593.2c0-25.2-12.3-50.4-34.7-62.7l-1154.2-796.3c-25.2-19-59.4-19-87.9,0l-1157,796.3
		c-21.8,15.7-34.7,37.5-34.7,62.7V-5.4"/>
	<path display="inline" fill="#098CCD" d="M2375.8-520.1v78.4c0,43.7-34.7,78.4-78.4,78.4S2219-398,2219-441.7v-78.4h-178.6
		c-28,0-50.4,21.8-50.4,50.4v411c0,28,21.8,50.4,50.4,50.4h514.1c28,0,50.4-21.8,50.4-50.4v-407.7c0-28-21.8-50.4-50.4-50.4h-178.6
		V-520.1z"/>
	<path display="inline" fill="#098CCD" d="M3093.7-520.1v78.4c0,43.7-34.7,78.4-78.4,78.4s-75-34.7-75-78.4v-78.4h-178.6
		c-28,0-50.4,21.8-50.4,50.4v411c0,28,21.8,50.4,50.4,50.4h514.1c28,0,50.4-21.8,50.4-50.4v-407.7c0-28-21.8-50.4-50.4-50.4h-182
		V-520.1z"/>
	<path display="inline" fill="#098CCD" d="M2736.4-1134.4v78.4c0,43.7-34.7,78.4-78.4,78.4s-78.4-34.7-78.4-78.4v-78.4H2401
		c-28,0-50.4,21.8-50.4,50.4v411c0,28,21.8,50.4,50.4,50.4H2915c28,0,50.4-21.8,50.4-50.4v-411c0-28-21.8-50.4-50.4-50.4H2736.4
		L2736.4-1134.4z"/>
</g>
<g display="none">
	<g display="inline">
		<g>
			<path fill="#098CCD" d="M2620.5-965.3c-3.4-6.2-9.5-12.3-15.7-12.3h-197.7V-1887c0-9.5-19-19-34.7,0l-266.6,307.4
				c-9.5,6.2-25.2,28-25.2,37.5v567.3H1883c-6.2,0-12.3,3.4-15.7,12.3c-3.4,6.2,0,15.7,3.4,19l360.6,360.6c3.4,3.4,9.5,6.2,12.3,6.2
				c6.2,0,9.5-3.4,12.3-6.2l360.6-360.6C2620.5-949.6,2623.3-959.1,2620.5-965.3z"/>
		</g>
	</g>
	<g display="inline">
		<g>
			<path fill="#098CCD" d="M2658-1510.7c3.4,6.2,9.5,12.3,15.7,12.3h197.7v912.8c0,9.5,19,19,34.7,0L3172.6-893
				c9.5-6.2,25.2-28,25.2-37.5v-570.6h197.7c6.2,0,12.3-3.4,15.7-12.3c3.4-6.2,0-15.7-3.4-19L3050-1893.2c-3.4-3.4-9.5-6.2-12.3-6.2
				c-6.2,0-9.5,3.4-12.3,6.2l-360.6,360.6C2658-1526.4,2658-1516.9,2658-1510.7z"/>
		</g>
	</g>
	<g display="inline">
		<g>
			<path fill="#098CCD" d="M2658-2448.7c-664.7,0-1210.7,542.6-1210.7,1210.7c0,664.7,542.6,1210.7,1210.7,1210.7
				c664.7,0,1210.7-542.6,1210.7-1210.7C3868.7-1902.7,3322.7-2448.7,2658-2448.7z M2658-168.4c-589.7,0-1069.6-479.9-1069.6-1069.6
				S2068.3-2307.6,2658-2307.6S3727.6-1827.7,3727.6-1238S3247.7-168.4,2658-168.4z"/>
		</g>
	</g>
</g>
<g display="none">
	<g transform="translate(1 1)" display="inline">
		<g>
			<path fill="#098CCD" d="M3955.1-1433.3l-1210.2-1101l-12.3-9.5c-9.5-6.2-15.7-12.3-25.2-19l0,0c-31.4-15.7-66.1-15.7-94.1,0l0,0
				c-9.5,3.4-19,9.5-25.2,19l-12.3,9.5l-1216.9,1101c-43.7,40.9-50.4,113.1-6.2,156.8c40.9,43.7,113.1,50.4,156.8,6.2l37.5-34.7
				V-19.3c0,62.7,50.4,109.8,109.8,109.8h555h890.4h555c62.7,0,109.8-50.4,109.8-109.8v-1282.4l37.5,34.7
				c43.7,40.9,115.9,37.5,156.8-6.2C4005.5-1320.8,4002.1-1392.4,3955.1-1433.3z M2211.8-125.7h-445.2v-1376.5l890.4-809.2
				l890.4,809.2v1376.5h-445.2"/>
		</g>
	</g>
	<g display="inline">
		<g>
			<g>
				<g>
					<path fill="#098CCD" d="M2658-1793c-125.4,0-225.7,100.2-225.7,225.7c0,84.6,47,156.8,115.9,197.7c31.4,19,68.9,28,109.8,28
						c40.9,0,78.4-9.5,109.8-28c68.9-37.5,115.9-113.1,115.9-197.7C2883.7-1692.7,2783.4-1793,2658-1793z"/>
				</g>
			</g>
			<g>
				<g>
					<path fill="#098CCD" d="M2262.6-1583c-94.1,0-169.1,75-169.1,169.1c0,94.1,75,169.1,169.1,169.1c25.2,0,47-6.2,66.1-12.3
						c34.7-15.7,62.7-40.9,81.8-75c12.3-25.2,19-50.4,19-78.4C2432.3-1507.9,2356.7-1583,2262.6-1583z"/>
				</g>
			</g>
			<g>
				<g>
					<path fill="#098CCD" d="M3053.4-1583c-94.1,0-169.1,75-169.1,169.1c0,28,6.2,56.6,19,78.4c19,34.7,47,59.4,81.8,75
						c19,9.5,43.7,12.3,66.1,12.3c94.1,0,169.1-75,169.1-169.1C3220.2-1511.3,3147.4-1583,3053.4-1583z"/>
				</g>
			</g>
			<path fill="#098CCD" d="M2773.9-1297.4h-229c-103.6,0-188.2,84.6-188.2,188.2V-855h602v-254.2
				C2959.3-1212.8,2874.2-1297.4,2773.9-1297.4z"/>
			<path fill="#098CCD" d="M3034.3-855.5H3307v-156.8c0-103.6-84.6-188.2-188.2-188.2h-100.2c9.5,28,15.7,59.4,15.7,90.7V-855.5
				L3034.3-855.5z"/>
			<path fill="#098CCD" d="M2281.7-855.5v-253.7c0-31.4,6.2-62.7,15.7-90.7h-100.2c-103.6,0-188.2,84.6-188.2,188.2V-855
				L2281.7-855.5L2281.7-855.5z"/>
		</g>
		<path fill="#098CCD" d="M2811.4-777.1L2811.4-777.1c0,87.9-68.9,160.2-156.8,160.2c-87.9,0-156.8-68.9-156.8-156.8c0,0,0,0,0-3.4
			h-376.3v66.1c0,15.7,9.5,28,25.2,31.4l122.1,31.4c6.2,21.8,15.7,43.7,25.2,62.7l-62.7,106.4c-6.2,12.3-6.2,28,3.4,37.5l87.9,87.9
			c9.5,9.5,25.2,12.3,37.5,3.4l106.4-62.7c21.8,9.5,40.9,19,62.7,25.2l31.4,122.1c3.4,12.3,15.7,25.2,31.4,25.2h125.4
			c15.7,0,28-9.5,31.4-25.2l31.4-122.1c21.8-6.2,43.7-15.7,62.7-25.2l106.4,62.7c12.3,6.2,28,6.2,37.5-3.4l87.9-87.9
			c9.5-9.5,12.3-25.2,3.4-37.5l-62.7-106.4c9.5-21.8,19-40.9,25.2-62.7l125.4-31.4c12.3-3.4,25.2-15.7,25.2-31.4v-66.1H2811.4z"/>
	</g>
</g>
<g>
	<g>
		<g>
			<g>
				<path fill="#686868" d="M492.5,278.8c-0.3-0.7-0.7-0.7-1.4-0.7h-5.8v-18.8c0-0.7-0.7-1.4-1.4-1.4h-5.8c-0.7,0-1.4,0.7-1.4,1.4
					v18.8h-5.8c-0.7,0-1,0.3-1.4,0.7c-0.3,0.7,0,1,0.3,1.7l10.3,11.6c0.3,0.3,0.7,0.3,1,0.3s0.7-0.3,1-0.3l10.3-11.6
					C492.9,279.9,492.9,279.2,492.5,278.8z"/>
			</g>
		</g>
		<g>
			<g>
				<path fill="#686868" d="M496.9,289.4v8.9h-32v-8.9h-5.8v11.6c0,1.7,1.4,3.1,3.1,3.1h37.9c1.7,0,3.1-1.4,3.1-3.1v-11.6H496.9z"/>
			</g>
		</g>
	</g>
	<g>
		<g>
			<path fill="#686868" d="M480,234.3c-25.1,0-45.7,20.6-45.7,45.7s20.6,45.7,45.7,45.7c25.1,0,45.7-20.6,45.7-45.7
				S505.1,234.3,480,234.3z M480,317.2c-20.4,0-37.2-16.8-37.2-37.2s16.8-37.2,37.2-37.2s37.2,16.8,37.2,37.2S500.7,317.2,480,317.2
				z"/>
		</g>
	</g>
</g>
</svg>
