<?xml version="1.0" encoding="utf-8"?>
<!-- Generator: Adobe Illustrator 18.0.0, SVG Export Plug-In . SVG Version: 6.00 Build 0)  -->
<!DOCTYPE svg PUBLIC "-//W3C//DTD SVG 1.1//EN" "http://www.w3.org/Graphics/SVG/1.1/DTD/svg11.dtd">
<svg version="1.1" id="Layer_1" xmlns="http://www.w3.org/2000/svg" xmlns:xlink="http://www.w3.org/1999/xlink" x="0px" y="0px"
	 viewBox="0 0 1000 438.1" enable-background="new 0 0 1000 438.1" xml:space="preserve">
<g>
	<g>
		<path fill="#138CCD" d="M728.7,292.9L693.5,419h-29.8L640,329.3L615.3,419l-29.6,0.2l-34-126.3h27.1l22.2,97.9l25.7-97.9h28.2
			l24.2,97.4l22.4-97.4H728.7z"/>
		<path fill="#138CCD" d="M882.6,292.9V419h-25.3v-82l-33.8,82h-19.1l-34-82v82h-25.3V292.9h28.7l40.1,93.8l40.1-93.8H882.6z"/>
		<path fill="#138CCD" d="M927.3,415.8c-7-3-12.6-7.3-16.7-13c-4.1-5.7-6.2-12.3-6.3-20.1h27.1c0.4,5.2,2.2,9.3,5.5,12.3
			c3.3,3,7.9,4.5,13.6,4.5c5.9,0,10.5-1.4,13.9-4.2c3.4-2.8,5.1-6.5,5.1-11.1c0-3.7-1.1-6.8-3.4-9.2c-2.3-2.4-5.1-4.3-8.6-5.7
			c-3.4-1.4-8.2-2.9-14.2-4.6c-8.2-2.4-14.8-4.8-20-7.1c-5.1-2.3-9.5-5.9-13.2-10.7c-3.7-4.8-5.5-11.1-5.5-19.1
			c0-7.5,1.9-14,5.6-19.5c3.7-5.5,9-9.8,15.7-12.7c6.7-2.9,14.4-4.4,23.1-4.4c13,0,23.6,3.2,31.7,9.5c8.1,6.3,12.6,15.1,13.5,26.5
			h-27.8c-0.2-4.3-2.1-7.9-5.5-10.7c-3.4-2.8-8-4.2-13.6-4.2c-4.9,0-8.9,1.3-11.8,3.8c-3,2.5-4.4,6.2-4.4,11c0,3.4,1.1,6.2,3.3,8.4
			c2.2,2.2,5,4,8.3,5.4c3.3,1.4,8,3,14,4.8c8.2,2.4,14.9,4.8,20.1,7.2c5.2,2.4,9.6,6,13.4,10.8c3.7,4.8,5.6,11.1,5.6,19
			c0,6.7-1.7,13-5.2,18.8c-3.5,5.8-8.6,10.4-15.4,13.8c-6.7,3.4-14.8,5.1-24,5.1C942.3,420.3,934.4,418.8,927.3,415.8z"/>
	</g>
	<g>
		<polygon fill="#EF3F23" points="4.3,292.3 107.7,292.3 93.6,319.7 4.3,319.7 		"/>
		<polygon fill="#EF3F23" points="93.6,341.7 4.3,341.7 4.3,420.3 36.3,420.3 36.3,368.3 93.6,368.3 		"/>
		<polygon fill="#EF3F23" points="110.3,292.3 142.5,292.3 142.5,392.4 226.2,392.4 213.7,420.3 110.3,420.3 		"/>
		<polygon fill="#EF3F23" points="233.1,292.3 336.5,292.3 323.2,319.7 233.1,319.7 		"/>
		<rect x="233.1" y="341.7" fill="#EF3F23" width="88.8" height="27.4"/>
		<rect x="233.1" y="393.2" fill="#EF3F23" width="97.5" height="27.1"/>
		<polygon fill="#EF3F23" points="342.4,292.3 377.2,341.7 398.5,341.7 342.4,420.3 375.9,420.3 404.6,379.9 434.6,420.3 
			466.8,420.3 420.5,356.3 466.8,292.3 433.3,292.3 404.6,333 376.5,292.3 		"/>
		<rect x="470.9" y="292.3" fill="#EF3F23" width="31.7" height="128"/>
	</g>
	<g>
		<polygon fill="#EF3F23" points="195.2,225.4 346.1,225.4 346.1,17.8 195.2,111.9 		"/>
		<polygon fill="#138CCD" points="361,17.8 361,243 399,243 399,65.7 559,98.7 559,243 594,243 594,107.5 698,128.8 698,243 
			719,243 719,133.3 795,146.9 795,243 816,243 816,121.6 		"/>
		<rect x="409.5" y="217.6" opacity="0.52" fill="#0F1127" width="142.2" height="7.8"/>
		<polygon opacity="0.52" fill="#0F1127" points="551.6,191.9 409.5,184.7 409.5,176.8 551.6,184.1 		"/>
		<polygon opacity="0.52" fill="#0F1127" points="551.6,160.1 409.5,148 409.5,140.2 551.6,152.2 		"/>
		<polygon opacity="0.52" fill="#0F1127" points="551.6,127.5 409.5,108.2 409.5,100.3 551.6,119.6 		"/>
		<rect x="599.8" y="217.6" opacity="0.52" fill="#0F1127" width="85.8" height="7.8"/>
		<polygon opacity="0.52" fill="#0F1127" points="685.6,197.6 599.8,195.1 599.8,187.3 685.6,189.7 		"/>
		<polygon opacity="0.52" fill="#0F1127" points="685.6,173.9 599.8,166.6 599.8,158.8 685.6,166 		"/>
		<polygon opacity="0.52" fill="#0F1127" points="685.6,146.4 599.8,134.3 599.8,126.5 685.6,138.6 		"/>
		<rect x="728.9" y="217.6" opacity="0.52" fill="#0F1127" width="57.8" height="7.8"/>
		<polygon opacity="0.52" fill="#0F1127" points="786.7,202.7 728.9,200.3 728.9,192.4 786.7,194.8 		"/>
		<polygon opacity="0.52" fill="#0F1127" points="786.7,184.4 728.9,177.1 728.9,169.3 786.7,176.5 		"/>
		<polygon opacity="0.52" fill="#0F1127" points="784.7,159.1 726.9,151.8 726.9,144 784.7,151.2 		"/>
		<rect x="4.3" y="241.1" fill="#138CCD" width="991.4" height="9.7"/>
	</g>
</g>
</svg>
